<svg xmlns="http://www.w3.org/2000/svg" xmlns:xlink="http://www.w3.org/1999/xlink" width="99.99" height="99.996" viewBox="0 0 99.99 99.996">
  <defs>
    <linearGradient id="linear-gradient" y1="0.5" x2="1" y2="0.5" gradientUnits="objectBoundingBox">
      <stop offset="0" stop-color="#16aed4"/>
      <stop offset="1" stop-color="#9f31ff"/>
    </linearGradient>
  </defs>
  <path id="Shape_10" data-name="Shape 10" d="M517.005,1518.145A50,50,0,1,1,567.077,1568h-.065A50.083,50.083,0,0,1,517.005,1518.145Zm17-22.729c-6.489,9.8-8.567,20.431-5.891,31.921,6.524,28.053,41.307,40.335,63.174,22.294a4.057,4.057,0,0,0-.483-.734q-27.027-27.069-54.031-54.15a2.1,2.1,0,0,0-1.336-.795C534.792,1493.951,534.451,1494.739,534,1495.416Zm10.712-10.685c-1.758,1.14-2.241,1.786-.422,3.588q26.309,26.077,52.37,52.406c1.823,1.84,2.487,1.316,3.6-.476,8.246-13.255,9.314-27.017,2.034-40.846-7.346-13.946-19.41-20.81-35.042-21.457l-.355,0A39.961,39.961,0,0,0,544.714,1484.731Zm-3.836,56.087c.268-.841.514-1.735.84-2.6,1.84-4.882,2.583-8.985-1.552-13.876-5.008-5.921-4.3-13.322-.562-20.19.695-1.277,1.2-1.47,2.342-.317q16.061,16.219,32.217,32.341a4.092,4.092,0,0,1,.488.941,36.155,36.155,0,0,1-18.259-.823,4.686,4.686,0,0,0-3.435.365c-3,1.307-6.045,2.5-9.077,3.733a5.374,5.374,0,0,1-2.033.625A2.486,2.486,0,0,1,540.878,1540.818Zm47.783-12.059q-17.5-17.717-35.1-35.338c-.043-.044,0-.172,0-.26,12.217-6.432,31.918-1.885,39.883,9.21a19.663,19.663,0,0,1-2.183,26.1c-.508.5-.912.946-1.422.946A1.752,1.752,0,0,1,588.661,1528.759Z" transform="translate(-517.005 -1468.002)" fill="url(#linear-gradient)"/>
</svg>
