<svg xmlns="http://www.w3.org/2000/svg" xmlns:xlink="http://www.w3.org/1999/xlink" width="99.995" height="99.006" viewBox="0 0 99.995 99.006">
  <defs>
    <linearGradient id="linear-gradient" y1="0.5" x2="1" y2="0.5" gradientUnits="objectBoundingBox">
      <stop offset="0" stop-color="#16aed4"/>
      <stop offset="1" stop-color="#9f31ff"/>
    </linearGradient>
  </defs>
  <path id="Shape_11" data-name="Shape 11" d="M945.2,1566.392c-5.626-.682-11.2-1.715-16.16-4.729-3.107-1.883-4.154-4.341-2.783-6.576a15.981,15.981,0,0,1,2.252-2.4c4.215-2.9,9.025-3.992,13.968-4.7.686-.1,1.356-.053,1.563.761.239.923-.245,1.463-1.084,1.789-1.088.419-2.262.412-3.378.814a28.966,28.966,0,0,0-3.721,1.642c-1.374,1.27-1.389,2.038.032,3.077a14.014,14.014,0,0,0,6.006,2.227c9.671,1.674,19.339,1.784,28.919-.685a10.92,10.92,0,0,0,3.335-1.583c1.2-.814,1.629-1.905.165-2.982a15.325,15.325,0,0,0-6.4-2.3,6.431,6.431,0,0,1-.9-.348c-.635-.347-1.285-.781-.956-1.649.266-.708.865-.809,1.6-.717a41.079,41.079,0,0,1,10.19,2.664,42.411,42.411,0,0,1,4.186,2.479c3.112,2.328,3.084,5.431-.025,7.779-3.635,2.743-7.938,3.832-12.284,4.673A76.517,76.517,0,0,1,955.175,1567,83.029,83.029,0,0,1,945.2,1566.392Zm2.325-10.829a2.057,2.057,0,0,1-2.013-2.348c.04-9.37-.8-18.719-.734-28.092.01-1.193-.489-1.588-1.526-1.817-2.626-.578-3.5-1.689-3.828-4.4-.349-2.937-.031-5.889-.328-8.833a70.748,70.748,0,0,1,.06-12.721c.328-4.211,1.366-7.52,5.686-8.952a18.389,18.389,0,0,0,4.068-1.53c2.59-1.166,2.816-1.5,1.265-3.746-2.418-3.5-2.181-7.209-1.359-11.044.3-1.387,1.414-2.118,2.421-2.927,3.516-2.451,8.518-.659,9.845,2.16.135.288.433.515.466.848.369,3.938,1.049,7.932-1.806,11.343-1.025,1.227-.673,2.063.577,2.839a17.988,17.988,0,0,0,4.272,1.866c4,1.206,6.084,3.908,6.2,8.013.238,8.484.746,16.987-.774,25.422a5.441,5.441,0,0,1-3.215,1.723c-1.108.166-1.475.789-1.508,1.891-.257,8.777-.777,17.549-.577,26.336a7.031,7.031,0,0,1-.2,2.341,2.083,2.083,0,0,1-1.92,1.661c-2.4.212-4.8.5-7.071-.656a1.377,1.377,0,0,0-1.312.053,7.7,7.7,0,0,1-3.682.824A23.864,23.864,0,0,1,947.525,1555.564Zm-36.784-15.106a12.831,12.831,0,0,1-4.194-2.018c-2.059-1.613-2.055-2.966-.041-4.738a20.02,20.02,0,0,1,7.4-2.884,2.5,2.5,0,0,1,.542-.16c.435-.015.928-.089,1.108.44.119.354-.225.535-.454.735a2.41,2.41,0,0,1-.47.247,14.354,14.354,0,0,0-1.908.688c-.212.132-.425.262-.642.384-.145.081-.3.15-.445.216a.8.8,0,0,0-.564.932c.939,1.677,2.636,1.611,4.2,1.848,6.3.876,12.569,1.188,18.719-.909.539-.155,1.207-.216,1.22-.968.008-.565-.491-.863-.9-1.164a3.39,3.39,0,0,0-2-.5,2.144,2.144,0,0,1-1.3-.491c-.934-.932-.827-1.469.569-1.507a1.933,1.933,0,0,1,.529.117c.88.4,1.9.2,2.769.654a2.022,2.022,0,0,1,.481.193c.638.282,1.338.376,1.981.643a5.776,5.776,0,0,1,3.643,2.761c.432,1.957-.673,3.059-2.164,3.96-3.276,1.977-6.969,2.606-10.647,2.924-1.862.159-3.725.255-5.582.256A39.364,39.364,0,0,1,910.742,1540.458Zm64.142-.1c-1.118-.305-2.2-.753-3.3-1.138a17.338,17.338,0,0,1-1.518-1.181c-1.71-1.628-1.32-3.41,1.017-4.769a19.422,19.422,0,0,1,8.695-2.326c-.473,1.039-1.45.975-2.244,1.275-.306.114-.658.077-.937.257-.771.507-2.041.525-2.061,1.8-.021,1.45,1.31,1.389,2.216,1.769a3.762,3.762,0,0,0,.572.127c4.877,1.422,9.868,1.011,14.827.865a17.276,17.276,0,0,0,6.506-1.714c1.7-1.919-.609-1.894-1.274-2.665-.8-.611-1.824-.547-2.72-.878l.01,0c-.442-.415-.693-.863.142-1.029a2.476,2.476,0,0,1,1.485.163l-.018,0c1.009.412,2.145.33,3.139.809l-.013,0a16.358,16.358,0,0,1,2.037.764,2.817,2.817,0,0,1,1.712.806c2.434,1.662,2.444,3.726.046,5.4-.475.33-.974.623-1.463.932-2.35.429-4.563,1.341-6.951,1.722a49.659,49.659,0,0,1-7.859.639A45.328,45.328,0,0,1,974.884,1540.362Zm-48.579-4.924c-2.193-.148-4.382-.079-6.577-.021-2.105.058-2.8-.557-2.707-2.651.193-4.377-.366-8.725-.283-13.095.011-.588.025-1.178-.013-1.764-.081-1.265-.023-2.605-1.788-2.842-.334-.046-.617-.458-.914-.71-.774-1.476-.387-3.087-.493-4.634a73.959,73.959,0,0,1-.038-11.182,4.776,4.776,0,0,1,3.3-4.577c.425-.158.84-.342,1.252-.53,2.815-1.272,2.813-1.274,1.4-4.082-1.394-2.776-.4-6.583,1.985-7.628a3.957,3.957,0,0,1,5.619,3.369,7.678,7.678,0,0,1-.8,5.089c-1.169,1.962-1,2.179,1.4,3,1,.572,2.182.773,3.136,1.442a3.528,3.528,0,0,1,1.809,2.6,34.289,34.289,0,0,1,.587,8.388c-.1,2.608-.577,5.183-.625,7.8-.026,1.231-1.045,1.707-2.12,1.966-1.13-.046-.992.773-.974,1.479.119,4.675-.5,9.331-.187,14.021.091,1.352.157,3.044-1.083,4.209a2.748,2.748,0,0,1-1.476.358C926.581,1535.452,926.443,1535.447,926.3,1535.438Zm54.833-2.815c-.025-5.122-.165-10.242-.212-15.365-.01-1.16-.081-2.015-1.561-2.181a1.833,1.833,0,0,1-1.667-1.687c-.433-5.165-.954-10.321-.175-15.514a4.6,4.6,0,0,1,3.291-3.943,27.007,27.007,0,0,0,2.692-1.139c.86-.43,1.356-1.054.6-2.01-1.3-2.394-1.128-4.939-.76-7.5,2.048-2.146,4.186-2.509,6.241-1.064,1.515,1.064,2.185,4.687,1.246,6.727-1.568,3.4-1.624,3.563,1.921,4.815,2.793.987,3.832,2.858,3.916,5.617.126,4.27.02,8.535-.122,12.8-.049,1.481-.592,2.644-2.067,2.948-1.244.255-1.333,1-1.353,1.985-.109,5.12-.251,10.239-.365,15.359-.053,2.352-.258,2.725-2.583,2.565a38.988,38.988,0,0,0-6.572.023q-.218.021-.415.021C981.76,1535.08,981.146,1534.238,981.137,1532.623Z" transform="translate(-905 -1467.996)" fill="url(#linear-gradient)"/>
</svg>
