<svg xmlns="http://www.w3.org/2000/svg" xmlns:xlink="http://www.w3.org/1999/xlink" width="100.023" height="92.998" viewBox="0 0 100.023 92.998">
  <defs>
    <linearGradient id="linear-gradient" y1="0.5" x2="1" y2="0.5" gradientUnits="objectBoundingBox">
      <stop offset="0" stop-color="#16aed4"/>
      <stop offset="1" stop-color="#9f31ff"/>
    </linearGradient>
  </defs>
  <path id="Shape_12" data-name="Shape 12" d="M1312.423,1564c-2.322-.027-4.647-.014-6.972-.014-2.281,0-4.561-.013-6.842.014-.493,0-.6-.147-.6-.614q.026-6.878,0-13.762c0-.433.1-.6.565-.579a19.213,19.213,0,0,0,2.11,0c.52-.031.685.108.681.654-.027,3.422,0,6.84-.027,10.262-.007.6.171.73.746.726,3.432-.027,6.866,0,10.3-.024.493,0,.679.113.644.627a17.817,17.817,0,0,0,0,2.1c.027.465-.1.61-.582.61Zm70.587-.59a17.707,17.707,0,0,0,0-2.163c-.034-.512.171-.587.623-.587,3.455.017,6.907,0,10.363.024.564,0,.708-.147.7-.7-.025-3.422,0-6.84-.025-10.258,0-.521.128-.716.669-.681a16.476,16.476,0,0,0,2.044,0c.5-.028.654.119.647.631-.027,2.292-.01,4.587-.01,6.881,0,2.271-.017,4.547.01,6.818.007.516-.161.628-.647.625q-6.877-.026-13.752,0h-.026C1383.17,1563.992,1382.979,1563.9,1383.01,1563.405Zm-53.328-11.766c.041-.931.01-.938.962-.931a16.163,16.163,0,0,0,4.067-.337c3.024-.764,4.463-2.429,4.771-5.523.151-1.525.219-3.053.219-4.585q.007-26.772.014-53.55c0-.6-.117-.8-.757-.781-.912.029-1.824.023-2.737.018a43.214,43.214,0,0,0-4.489.129,18.086,18.086,0,0,0-3.571.7,9.823,9.823,0,0,0-4.349,2.688,19.77,19.77,0,0,0-4.935,10.251c-.216,1.166-.2,1.17-1.373,1.17s-1.16,0-1.16-1.181c0-5.461.01-10.922-.011-16.384,0-.556.134-.706.7-.706q15.518.026,31.038.013h30.721c.9,0,.9,0,.9.921,0,5.547-.011,11.094.01,16.641,0,.538-.1.73-.688.713-1.49-.044-1.493-.011-1.979-1.434a51.6,51.6,0,0,0-1.869-5.079c-2.39-5.147-6.26-8.231-12.126-8.406-1.254-.035-2.507-.035-3.761-.035-.816,0-1.633,0-2.448-.009-.359,0-.513.106-.465.468a3.617,3.617,0,0,1,0,.382v53.87c0,1.7.058,3.4.216,5.093a4.753,4.753,0,0,0,2.554,3.74,9.1,9.1,0,0,0,4.647,1.21c.726.017,1.452.014,2.178,0,.3,0,.391.1.408.4.072,1.266.085,1.263-1.147,1.263q-17.407,0-34.816.017C1329.8,1552.384,1329.655,1552.207,1329.682,1551.64Zm-31.673-66.369c.017-4.036.011-8.075.011-12.11,0-.529.027-1.065-.007-1.589-.031-.451.13-.577.572-.573,2.3.02,4.606.011,6.911.011s4.605.009,6.907-.011c.452,0,.654.082.624.587a17.382,17.382,0,0,0,0,2.166c.031.5-.172.59-.627.587q-2.156-.011-4.313-.006c-2,0-3.991,0-5.984-.018-.63-.006-.77.171-.763.778.031,3.418,0,6.84.023,10.258,0,.467-.1.641-.6.61a15.539,15.539,0,0,0-2.11,0q-.068.005-.127.005C1298.073,1485.965,1298.007,1485.726,1298.01,1485.271Zm96.18.688a10.49,10.49,0,0,0-1.64,0c-.374.028-.48-.119-.476-.6.017-2.8.01-5.608.01-8.412,0-.637-.038-1.279.011-1.91s-.154-.724-.586-.72c-1.25.011-2.5.011-3.751.011-1.4,0-2.8,0-4.2.016-.441,0-.578-.143-.547-.706.041-.7.027-1.4,0-2.1-.014-.423.1-.536.424-.532,1.805.016,3.613.007,5.418.007,1.773,0,3.547.009,5.321-.011.37,0,.514.088.514.621q-.026,6.846,0,13.7c0,.453-.079.645-.406.645Q1394.236,1485.963,1394.19,1485.959Z" transform="translate(-1298.01 -1470.998)" fill="url(#linear-gradient)"/>
</svg>
