<svg xmlns="http://www.w3.org/2000/svg" width="25" height="26" viewBox="0 0 25 26">
  <defs>
    <style>
      .cls-1 {
        fill: #fff;
        fill-rule: evenodd;
      }
    </style>
  </defs>
  <path class="cls-1" d="M1307.09,1161.85a0.822,0.822,0,0,0-.76-0.47H1303v-10.57a0.817,0.817,0,0,0-.83-0.81h-3.34a0.817,0.817,0,0,0-.83.81v10.57h-3.33a0.822,0.822,0,0,0-.76.47,0.778,0.778,0,0,0,.13.87l5.83,6.5a0.849,0.849,0,0,0,1.26,0l5.83-6.5A0.778,0.778,0,0,0,1307.09,1161.85Zm2.58,6.02v4.88h-18.34v-4.88H1288v6.51a1.65,1.65,0,0,0,1.67,1.62h21.66a1.65,1.65,0,0,0,1.67-1.62v-6.51h-3.33Z" transform="translate(-1288 -1150)"/>
</svg>
