<svg id="Component_4_1" data-name="Component 4 – 1" xmlns="http://www.w3.org/2000/svg" width="127.985" height="127.681" viewBox="0 0 127.985 127.681">
  <path id="Shape_13" data-name="Shape 13" d="M1446.27,2057.149a5.03,5.03,0,0,0-1.008,1.932,5.095,5.095,0,0,0,6.087,6.268,61.205,61.205,0,1,1-72.27-30.56q1.535-.469,3.1-.858a61.325,61.325,0,0,1,44.7,6.03c0,.016-.01.031-.014.046a5.093,5.093,0,0,0,8.037,5.337,5.039,5.039,0,0,0,1.66-2.245c.055-.147.106-.3.148-.454a5.094,5.094,0,0,0-8.366-5.061,64.135,64.135,0,0,0-48.42-5.944q-1.492.413-2.962.895a63.989,63.989,0,1,0,76.828,31.457,5.086,5.086,0,0,0-5.212-8.412,5.113,5.113,0,0,0-2.308,1.57m-13.889-18.039a2.305,2.305,0,1,1-1.373.06,2.3,2.3,0,0,1,1.373-.06M1452.406,2061a2.566,2.566,0,0,1-.105.279,2.285,2.285,0,0,1-2.422,1.388,2.171,2.171,0,0,1-.288-.047,2.3,2.3,0,0,1-1.628-2.812c.013-.05.038-.093.055-.141a2.294,2.294,0,0,1,2.323-1.551,2.411,2.411,0,0,1,.438.072,2.3,2.3,0,0,1,1.629,2.81" transform="translate(-1332.965 -2029.335)" fill="#f5b945"/>
  <path id="Shape_19" data-name="Shape 19" d="M1367.519,2112.009a2.518,2.518,0,0,1-2.526-2.509h62.99a2.519,2.519,0,0,1-2.529,2.509Zm-2.539-2.509,9.361-7.231v-27.342a2.921,2.921,0,0,1,2.909-2.927h38.475a2.921,2.921,0,0,1,2.909,2.927v27.341l9.361,7.231Zm7.394-2.527H1420.6l-4.9-3.781H1377.27Zm4.511-32.045v25.7h39.2v-25.7a.365.365,0,0,0-.365-.366H1377.25A.365.365,0,0,0,1376.886,2074.927Zm5.931,19.094,9.584-8.562,7.752,5.613,9.062-10.35,1,.887-9.863,11.262-7.865-5.7-8.785,7.85Z" transform="translate(-1332.965 -2029.335)" fill="#f5b945"/>
</svg>
