<svg xmlns="http://www.w3.org/2000/svg" width="32" height="32" viewBox="0 0 32 32">
  <defs>
    <style>
      .cls-1 {
        fill: #fff;
        fill-rule: evenodd;
      }
    </style>
  </defs>
  <path id="ico_demo" class="cls-1" d="M1178.27,2451.93a1.07,1.07,0,1,1-1.07-1.06A1.071,1.071,0,0,1,1178.27,2451.93Zm4.26,0a1.065,1.065,0,1,1-1.06-1.06A1.063,1.063,0,0,1,1182.53,2451.93Zm4.27,0a1.065,1.065,0,1,1-2.13,0A1.065,1.065,0,0,1,1186.8,2451.93Zm-28.27,18.14a0.536,0.536,0,0,1-.53-0.54v-1.06a0.535,0.535,0,1,1,1.07,0v1.06A0.538,0.538,0,0,1,1158.53,2470.07Zm1.6,0.53a0.534,0.534,0,0,1-.53-0.53v-2.14a0.535,0.535,0,0,1,1.07,0v2.14A0.536,0.536,0,0,1,1160.13,2470.6Zm6.4,0a0.534,0.534,0,0,1-.53-0.53v-2.14a0.535,0.535,0,0,1,1.07,0v2.14A0.536,0.536,0,0,1,1166.53,2470.6Zm-4.26,1.07a0.538,0.538,0,0,1-.54-0.54v-4.26a0.535,0.535,0,1,1,1.07,0v4.26A0.536,0.536,0,0,1,1162.27,2471.67Zm2.13,0a0.536,0.536,0,0,1-.53-0.54v-4.26a0.53,0.53,0,1,1,1.06,0v4.26A0.536,0.536,0,0,1,1164.4,2471.67Zm4.27,1.06a0.536,0.536,0,0,1-.54-0.53v-6.4a0.535,0.535,0,0,1,1.07,0v6.4A0.534,0.534,0,0,1,1168.67,2472.73Zm2.13,1.07a0.534,0.534,0,0,1-.53-0.53v-8.54a0.53,0.53,0,0,1,1.06,0v8.54A0.534,0.534,0,0,1,1170.8,2473.8Zm2.13,3.2a0.534,0.534,0,0,1-.53-0.53v-14.94a0.535,0.535,0,0,1,1.07,0v14.94A0.536,0.536,0,0,1,1172.93,2477Zm16.54-6.93a0.538,0.538,0,0,1-.54-0.54v-1.06a0.535,0.535,0,1,1,1.07,0v1.06A0.536,0.536,0,0,1,1189.47,2470.07Zm-1.6.53a0.536,0.536,0,0,1-.54-0.53v-2.14a0.535,0.535,0,0,1,1.07,0v2.14A0.534,0.534,0,0,1,1187.87,2470.6Zm-6.4,0a0.536,0.536,0,0,1-.54-0.53v-2.14a0.535,0.535,0,0,1,1.07,0v2.14A0.534,0.534,0,0,1,1181.47,2470.6Zm4.26,1.07a0.536,0.536,0,0,1-.53-0.54v-4.26a0.535,0.535,0,1,1,1.07,0v4.26A0.538,0.538,0,0,1,1185.73,2471.67Zm-2.13,0a0.536,0.536,0,0,1-.53-0.54v-4.26a0.53,0.53,0,1,1,1.06,0v4.26A0.536,0.536,0,0,1,1183.6,2471.67Zm-4.27,1.06a0.534,0.534,0,0,1-.53-0.53v-6.4a0.535,0.535,0,0,1,1.07,0v6.4A0.536,0.536,0,0,1,1179.33,2472.73Zm-2.13,1.07a0.534,0.534,0,0,1-.53-0.53v-8.54a0.53,0.53,0,0,1,1.06,0v8.54A0.534,0.534,0,0,1,1177.2,2473.8Zm-2.13,3.2a0.536,0.536,0,0,1-.54-0.53v-14.94a0.535,0.535,0,0,1,1.07,0v14.94A0.534,0.534,0,0,1,1175.07,2477Zm-2.14-21.33v-7.47H1174v7.47h-1.07Zm0.54-2.67a0.536,0.536,0,0,0-.54.53v2.14H1174v-2.14A0.534,0.534,0,0,0,1173.47,2453Zm0.53-4.8h-1.07v1.07a0.535,0.535,0,0,0,1.07,0v-1.07Zm-1.07,3.2a0.594,0.594,0,0,0,.16.38l0.08,0.06a0.405,0.405,0,0,0,.09.05,0.193,0.193,0,0,0,.1.03,0.41,0.41,0,0,0,.11.01,0.554,0.554,0,0,0,.38-0.15,0.784,0.784,0,0,0,.11-0.18,0.561,0.561,0,0,0-.11-0.58,0.582,0.582,0,0,0-.18-0.11,0.448,0.448,0,0,0-.2-0.04,0.52,0.52,0,0,0-.38.15A0.546,0.546,0,0,0,1172.93,2451.4Zm4.74,7.47h-1.54a3.216,3.216,0,0,1-3.2-3.2,0.535,0.535,0,1,1,1.07,0,2.132,2.132,0,0,0,2.13,2.13h1.54A0.535,0.535,0,0,1,1177.67,2458.87Zm9.13,0h-4.46a0.535,0.535,0,1,1,0-1.07h4.46a2.125,2.125,0,0,0,2.13-2.13v-7.47a2.125,2.125,0,0,0-2.13-2.13h-10.67a2.132,2.132,0,0,0-2.13,2.13,0.535,0.535,0,0,1-1.07,0,3.209,3.209,0,0,1,3.2-3.2h10.67a3.2,3.2,0,0,1,3.2,3.2v7.47A3.2,3.2,0,0,1,1186.8,2458.87Zm-9.6,3.73a0.553,0.553,0,0,1-.4-0.18,0.545,0.545,0,0,1-.13-0.42l0.53-4.27a0.552,0.552,0,0,1,.6-0.45,0.536,0.536,0,0,1,.46.59l-0.38,3.04,4.87-3.54a0.542,0.542,0,0,1,.75.12,0.53,0.53,0,0,1-.12.74l-5.87,4.27A0.571,0.571,0,0,1,1177.2,2462.6Zm0-9.07a1.6,1.6,0,1,1,1.6-1.6A1.6,1.6,0,0,1,1177.2,2453.53Zm0-2.13a0.535,0.535,0,1,0,.53.53A0.534,0.534,0,0,0,1177.2,2451.4Zm4.27,2.13a1.6,1.6,0,1,1,1.6-1.6A1.592,1.592,0,0,1,1181.47,2453.53Zm0-2.13a0.535,0.535,0,1,0,.53.53A0.536,0.536,0,0,0,1181.47,2451.4Zm4.26,2.13a1.6,1.6,0,1,1,1.6-1.6A1.6,1.6,0,0,1,1185.73,2453.53Zm0-2.13a0.535,0.535,0,1,0,.54.53A0.534,0.534,0,0,0,1185.73,2451.4Z" transform="translate(-1158 -2445)"/>
</svg>
