<svg xmlns="http://www.w3.org/2000/svg" xmlns:xlink="http://www.w3.org/1999/xlink" width="710" height="429" viewBox="0 0 710 429"><defs><linearGradient id="a" x1="-8.796" y1="0.202" x2="-9.766" y2="0.208" gradientUnits="objectBoundingBox"><stop offset="0" stop-color="#723d90"/><stop offset="1" stop-color="#e63068"/></linearGradient><linearGradient id="b" x1="-9.554" y1="0.178" x2="-10.525" y2="0.185" xlink:href="#a"/><linearGradient id="c" x1="0.525" y1="-1.913" x2="0.49" y2="1.423" xlink:href="#a"/><linearGradient id="d" x1="0.869" y1="0.481" x2="-0.105" y2="0.532" xlink:href="#a"/><linearGradient id="e" x1="0.869" y1="0.486" x2="-0.105" y2="0.523" xlink:href="#a"/><linearGradient id="f" x1="0.525" y1="-1.913" x2="0.49" y2="1.423" xlink:href="#a"/><linearGradient id="g" x1="-2.509" y1="1.062" x2="-1.789" y2="1.062" gradientUnits="objectBoundingBox"><stop offset="0" stop-color="#ffe930"/><stop offset="1" stop-color="#cc2553"/></linearGradient><linearGradient id="h" x1="-5.937" y1="-0.048" x2="-4.474" y2="2.183" gradientUnits="objectBoundingBox"><stop offset="0" stop-color="#ba0f5b"/><stop offset="1" stop-color="#341e5c"/></linearGradient><linearGradient id="i" x1="-1.849" y1="0.661" x2="-1.433" y2="1.496" xlink:href="#h"/><linearGradient id="j" y1="0.5" x2="1" y2="0.5" gradientUnits="objectBoundingBox"><stop offset="0" stop-color="#0a2b70"/><stop offset="1" stop-color="#0a0e33"/></linearGradient><linearGradient id="k" x1="0" y1="0.5" x2="1.05" y2="0.5" xlink:href="#g"/><linearGradient id="l" x1="14.259" y1="-5.509" x2="14.91" y2="-5.509" xlink:href="#h"/><linearGradient id="m" x1="36.938" y1="-5.723" x2="37.779" y2="-5.723" gradientUnits="objectBoundingBox"><stop offset="0" stop-color="#806bad"/><stop offset="0.772" stop-color="#bf80b6"/><stop offset="1" stop-color="#d286b8"/></linearGradient><linearGradient id="n" x1="13.038" y1="-11.954" x2="13.867" y2="-11.954" xlink:href="#g"/><linearGradient id="o" x1="30.988" y1="-12.791" x2="31.994" y2="-12.791" xlink:href="#m"/><linearGradient id="p" x1="0.417" y1="0.052" x2="0.654" y2="1.372" gradientUnits="objectBoundingBox"><stop offset="0" stop-color="#4dc4f1"/><stop offset="0.206" stop-color="#47a8e0"/><stop offset="1" stop-color="#294899"/></linearGradient><linearGradient id="q" x1="0.4" y1="2.489" x2="0.545" y2="-0.408" xlink:href="#j"/><linearGradient id="r" x1="0.994" y1="3.886" x2="0.194" y2="-1.599" gradientUnits="objectBoundingBox"><stop offset="0" stop-color="#4dc4f1"/><stop offset="1" stop-color="#294899"/></linearGradient><linearGradient id="s" x1="0.994" y1="3.886" x2="0.194" y2="-1.599" xlink:href="#r"/><linearGradient id="cj" x1="0" y1="0.968" x2="1" y2="0.968" xlink:href="#h"/><linearGradient id="ck" x1="0" y1="-0.846" x2="1" y2="-0.846" xlink:href="#h"/><linearGradient id="cl" x1="0" y1="0.5" x2="1" y2="0.5" xlink:href="#h"/><linearGradient id="cn" x1="-706.358" y1="-5.384" x2="-708.874" y2="17.67" xlink:href="#j"/><linearGradient id="co" x1="414.32" y1="0.968" x2="416.557" y2="-0.567" xlink:href="#j"/><linearGradient id="cp" x1="1581.629" y1="-0.843" x2="1581.122" y2="2.39" gradientUnits="objectBoundingBox"><stop offset="0" stop-color="#f8a661"/><stop offset="1" stop-color="#ef614c"/></linearGradient><linearGradient id="cq" x1="413.553" y1="-5.384" x2="411.037" y2="17.67" xlink:href="#j"/><linearGradient id="cr" x1="414.29" y1="0.794" x2="416.373" y2="-0.625" xlink:href="#j"/><linearGradient id="cs" x1="1607.168" y1="-0.223" x2="1606.653" y2="2.539" xlink:href="#cp"/><linearGradient id="ct" x1="239.197" y1="0.137" x2="239.084" y2="1.425" gradientUnits="objectBoundingBox"><stop offset="0" stop-color="#17638e"/><stop offset="1" stop-color="#071133"/></linearGradient><linearGradient id="cu" x1="0.009" y1="2.029" x2="0.666" y2="-0.219" xlink:href="#r"/><linearGradient id="cv" x1="0.123" y1="1.785" x2="0.695" y2="-0.165" xlink:href="#r"/><linearGradient id="cw" x1="669.603" y1="-0.222" x2="668.785" y2="2.966" xlink:href="#cp"/><linearGradient id="cx" x1="496.83" y1="-61.255" x2="495.615" y2="-60.478" xlink:href="#cp"/><linearGradient id="cy" x1="310.529" y1="-55.673" x2="311.237" y2="-54.569" xlink:href="#j"/><linearGradient id="cz" x1="2091.461" y1="-185.634" x2="2086.342" y2="-183.295" xlink:href="#cp"/><linearGradient id="da" x1="1.564" y1="0.189" x2="-2.613" y2="1.42" xlink:href="#cp"/><linearGradient id="db" x1="-0.547" y1="2.02" x2="0.868" y2="-0.245" xlink:href="#r"/><linearGradient id="dc" x1="2.689" y1="-0.298" x2="-3.501" y2="1.895" xlink:href="#cp"/><linearGradient id="dd" x1="0.609" y1="-0.356" x2="0.426" y2="0.818" xlink:href="#a"/><linearGradient id="de" x1="0.447" y1="0.372" x2="0.873" y2="1" xlink:href="#g"/><linearGradient id="df" x1="552.272" y1="-278.748" x2="553.128" y2="-278.748" xlink:href="#h"/><linearGradient id="dh" x1="111.074" y1="-103.415" x2="112.2" y2="-103.415" xlink:href="#h"/><linearGradient id="di" x1="-2373.093" y1="-365.575" x2="-2371.953" y2="-365.575" xlink:href="#h"/><linearGradient id="dj" x1="3.657" y1="9.992" x2="3.386" y2="9.165" xlink:href="#h"/></defs><g opacity="0.9"><path d="M931.9,462.908l14.495-16.553s65.079-57.556,67.4-122.5,31.135-73.678,100.1-77.757c58.3-3.449,125.7-13.227,179.868,23.632a134.749,134.749,0,0,0,80.436,23.413l62.877-2.167a133.921,133.921,0,0,1,83.916,25.994c36.162,26.55,75.1,75.425,59.218,158.55a259.022,259.022,0,0,0-4.672,43.289l-.657,35.319c-.578,31.018-24.79,56.057-55.038,56.719L1047.9,621.177A169.689,169.689,0,0,1,919.41,566.1a51.289,51.289,0,0,1-13.464-35.732A105.449,105.449,0,0,1,931.9,462.908Z" transform="translate(-905.937 -242.308)" opacity="0.26" fill="url(#a)"/></g><g transform="translate(29.758 12.572)" opacity="0.9"><path d="M959.806,459.771,973.268,444.4s60.445-53.458,62.6-113.781,28.917-68.43,92.967-72.218c54.151-3.2,116.746-12.286,167.059,21.949a125.145,125.145,0,0,0,74.709,21.745l58.4-2.013a124.389,124.389,0,0,1,77.94,24.142c33.588,24.661,69.757,70.055,55,147.26a240.729,240.729,0,0,0-4.339,40.206l-.611,32.8c-.536,28.808-23.023,52.065-51.118,52.679l-438.327,9.6a157.606,157.606,0,0,1-119.338-51.149,47.643,47.643,0,0,1-12.5-33.188A97.935,97.935,0,0,1,959.806,459.771Z" transform="translate(-935.695 -254.88)" opacity="0.26" fill="url(#b)"/></g><g transform="translate(178.152 9.521)"><path d="M1179.473,258.936h-91.831a3.554,3.554,0,0,1-3.554-3.554h0a3.554,3.554,0,0,1,3.554-3.554h91.831a3.554,3.554,0,0,1,3.554,3.554h0A3.554,3.554,0,0,1,1179.473,258.936Z" transform="translate(-1084.089 -251.829)" fill="#fff" opacity="0.2"/><path d="M1190.507,272.855h-91.83a3.553,3.553,0,0,1-3.554-3.552h0a3.554,3.554,0,0,1,3.554-3.554h91.83a3.554,3.554,0,0,1,3.554,3.554h0A3.553,3.553,0,0,1,1190.507,272.855Z" transform="translate(-1084.089 -251.829)" fill="#fff" opacity="0.53"/><path d="M1164.393,300.695h-65.716a3.554,3.554,0,0,1-3.554-3.554h0a3.554,3.554,0,0,1,3.554-3.554h65.716a3.554,3.554,0,0,1,3.554,3.554h0A3.554,3.554,0,0,1,1164.393,300.695Z" transform="translate(-1084.089 -251.829)" fill="#fff" opacity="0.53"/><path d="M1200.806,286.775h-91.83a3.554,3.554,0,0,1-3.554-3.554h0a3.553,3.553,0,0,1,3.554-3.552h91.83a3.553,3.553,0,0,1,3.554,3.552h0A3.554,3.554,0,0,1,1200.806,286.775Z" transform="translate(-1084.089 -251.829)" fill="#fff" opacity="0.2"/></g><g transform="translate(49.013 383.945)" opacity="0.5"><path d="M1021,631.174h-63.59a2.461,2.461,0,0,1-2.46-2.461h0a2.459,2.459,0,0,1,2.46-2.46H1021a2.461,2.461,0,0,1,2.461,2.46h0A2.462,2.462,0,0,1,1021,631.174Z" transform="translate(-954.949 -626.252)" opacity="0.2" fill="url(#c)"/><path d="M1028.64,640.812H965.05a2.46,2.46,0,0,1-2.46-2.46h0a2.461,2.461,0,0,1,2.46-2.461h63.591a2.462,2.462,0,0,1,2.461,2.461h0A2.461,2.461,0,0,1,1028.64,640.812Z" transform="translate(-954.949 -626.252)" opacity="0.53" fill="url(#d)"/><path d="M1010.557,660.09H965.05a2.46,2.46,0,0,1-2.46-2.46h0a2.461,2.461,0,0,1,2.46-2.461h45.507a2.462,2.462,0,0,1,2.461,2.461h0A2.461,2.461,0,0,1,1010.557,660.09Z" transform="translate(-954.949 -626.252)" opacity="0.53" fill="url(#e)"/><path d="M1035.772,650.452h-63.59a2.462,2.462,0,0,1-2.461-2.461h0a2.461,2.461,0,0,1,2.461-2.46h63.59a2.46,2.46,0,0,1,2.46,2.46h0A2.461,2.461,0,0,1,1035.772,650.452Z" transform="translate(-954.949 -626.252)" opacity="0.2" fill="url(#f)"/></g><g transform="translate(16.382 80.954)"><path d="M1071.241,598.173a1.532,1.532,0,0,1-.428,2.976c-11.834.153-36.659-3.694-58.2-34.266-29.513-41.878-51.353-44.623-66.275-48.66s-35.646-20.823-15.95-41.2S968.01,487.011,971.9,502.9s17.877,7.671,28.442,2.852,24.554,5.933,21.856,31.4C1019.606,561.59,1021.6,579.884,1071.241,598.173Z" transform="translate(-922.319 -323.262)" fill="url(#g)"/><path d="M1095.875,577.686s-68.623-21.663-48.175-88.085c5.826-18.928,31.034-49.185,18.023-64.051-18.1-20.683-42.605-33.969-24.218-53.505s27.839,16.858,31.178,32.185,5.135,27.289,19.716,35.2,7.958,22.75-4.41,31.565-62.734,60.511,12.435,104.928Z" transform="translate(-922.319 -323.262)" fill="url(#h)"/><g transform="translate(12.779)"><path d="M1086.332,581.379s-32.328-.912-46-36.534-11.844-46.15-38.125-56.35S971.16,470.52,984.3,445.085s-6.489-28.585-18.573-36.34-49.312-40.45-19.053-72.989,69.9,4.123,74.252,45.4,17.721,41.564,24.434,49.238,9.1,18.653,0,40.559-14.77,96.359,46.134,108.424Z" transform="translate(-935.098 -323.262)" fill="url(#i)"/><path d="M966.99,359.446a4.668,4.668,0,0,0,.535.44l.617.438,1.244.883c.823.6,1.64,1.211,2.434,1.85,1.592,1.278,3.116,2.639,4.591,4.051a88.292,88.292,0,0,1,8.16,9.127,120.8,120.8,0,0,1,7,10.05c2.157,3.466,4.134,7.04,6.019,10.659,1.843,3.639,3.606,7.322,5.191,11.079l.608,1.4.575,1.417,1.153,2.832q1.107,2.849,2.173,5.716c2.771,7.665,5.138,15.472,7.242,23.333l3.12,11.76,3.165,11.748q3.158,11.749,6.448,23.459c2.209,7.8,4.45,15.595,6.852,23.338q1.8,5.808,3.722,11.578l1.931,5.772q.96,2.89,1.891,5.788a.043.043,0,0,1-.029.056.044.044,0,0,1-.055-.026l-4.361-11.368c-1.443-3.8-2.809-7.621-4.153-11.454-2.64-7.684-5.106-15.424-7.461-23.2l-1.755-5.832c-.584-1.946-1.137-3.9-1.708-5.845-1.143-3.9-2.238-7.805-3.355-11.708s-2.166-7.824-3.251-11.735l-3.189-11.751a248.567,248.567,0,0,0-16.463-45.5q-2.691-5.419-5.749-10.643a120.509,120.509,0,0,0-6.652-10.1,90.024,90.024,0,0,0-7.747-9.275c-1.4-1.451-2.85-2.852-4.371-4.179-.754-.67-1.532-1.313-2.319-1.947l-1.195-.938-.6-.473a4.085,4.085,0,0,1-.6-.565.211.211,0,0,1,.316-.28Z" transform="translate(-935.098 -323.262)" fill="#fff" opacity="0.65"/></g><path d="M1048.585,385.935a94.05,94.05,0,0,1,7.458,7.533c2.355,2.636,4.6,5.374,6.714,8.217a86.139,86.139,0,0,1,10.582,18.447,57.707,57.707,0,0,1,3.163,10.245,45.559,45.559,0,0,1,.935,10.744,38.99,38.99,0,0,1-1.9,10.66,42.824,42.824,0,0,1-2.053,5.028c-.8,1.611-1.734,3.207-2.663,4.678-3.7,6-7.464,11.944-11.049,17.97-1.788,3.013-3.521,6.054-5.1,9.161a76.909,76.909,0,0,0-4.156,9.543,46.116,46.116,0,0,0-2.281,10.065,40.535,40.535,0,0,0,.264,10.321,56.982,56.982,0,0,0,2.493,10.12l.419,1.241.464,1.226c.307.819.614,1.637.96,2.443s.649,1.627,1.015,2.424l1.072,2.4,0,.01a.374.374,0,0,1-.676.32l-1.186-2.371c-.4-.785-.752-1.6-1.131-2.4s-.713-1.62-1.053-2.437l-.512-1.228-.465-1.245a58.215,58.215,0,0,1-2.886-10.268c-.073-.441-.172-.879-.223-1.323l-.163-1.333c-.131-.888-.154-1.786-.225-2.68-.04-.447-.03-.9-.04-1.346l-.017-1.346.058-1.347c.022-.448.026-.9.081-1.346a46.246,46.246,0,0,1,2.186-10.525,73.625,73.625,0,0,1,4.129-9.863c1.584-3.182,3.309-6.276,5.084-9.333s3.625-6.059,5.469-9.06l5.544-8.984c.943-1.51,1.8-2.951,2.575-4.486a41,41,0,0,0,1.958-4.731,38.142,38.142,0,0,0,1.271-4.959,37.018,37.018,0,0,0,.574-5.093,43.434,43.434,0,0,0-.77-10.255q-.5-2.54-1.234-5.031c-.48-1.663-1.043-3.3-1.669-4.922a77.165,77.165,0,0,0-4.432-9.442,97.59,97.59,0,0,0-5.529-8.9,117.74,117.74,0,0,0-13.417-16.151l-.007-.007a.269.269,0,0,1,.369-.391Z" transform="translate(-922.319 -323.262)" fill="#fff" opacity="0.65"/><path d="M939.531,494.686c.839,1.189,1.787,2.351,2.755,3.466.477.568.983,1.11,1.486,1.653s1.015,1.081,1.535,1.608a73.3,73.3,0,0,0,6.592,5.94,80.937,80.937,0,0,0,14.877,9.565l4.006,1.886,4.109,1.653c.689.28,1.427.6,2.136.892l.536.226.519.264,1.035.532c.7.336,1.35.76,2.012,1.159.329.2.666.4.986.612l.945.667a48.876,48.876,0,0,1,6.924,6.038,82.819,82.819,0,0,1,5.877,6.946c1.843,2.4,3.581,4.854,5.292,7.321s3.4,4.947,5.078,7.42c3.358,4.953,6.816,9.818,10.522,14.494l1.412,1.732.709.865.728.847,1.458,1.695,1.506,1.652.754.826.775.8,1.551,1.611c.529.526,1.068,1.039,1.6,1.561s1.064,1.046,1.626,1.536a95.965,95.965,0,0,0,14.266,10.814.049.049,0,0,1,.016.068.047.047,0,0,1-.065.017,89.311,89.311,0,0,1-14.77-10.275,109.758,109.758,0,0,1-12.654-12.862c-3.875-4.609-7.446-9.46-10.926-14.344l-5.2-7.324c-1.74-2.43-3.5-4.838-5.347-7.164s-3.751-4.593-5.8-6.7a46.763,46.763,0,0,0-6.648-5.7l-.895-.621c-.3-.2-.62-.376-.928-.565-.624-.367-1.234-.762-1.889-1.065l-.967-.487-.484-.244-.5-.2-2.018-.826-4.225-1.709-4.122-1.948c-1.346-.7-2.665-1.463-4-2.192-1.291-.8-2.584-1.6-3.859-2.424a78.3,78.3,0,0,1-7.223-5.543,65.86,65.86,0,0,1-6.452-6.4c-.5-.569-1-1.137-1.47-1.732s-.951-1.179-1.4-1.793a37.254,37.254,0,0,1-2.536-3.79.438.438,0,0,1,.736-.474Z" transform="translate(-922.319 -323.262)" fill="#fff" opacity="0.65"/></g><g transform="translate(162.167 9.62)"><g transform="translate(0 64.623)"><path d="M1068.1,346.707V617.17c0,22.25,15.928,40.444,35.91,41.018,88.748,2.548,399.145,8.725,483.625,7.338,14.521-.239,26.283-13.172,26.7-29.33,1.629-62.832,4.274-213.922-5.517-284.068-2.062-14.772-13.262-25.818-26.687-26.295-74.36-2.649-403.4-11.056-487.842-8.945C1079.732,317.251,1068.1,330.493,1068.1,346.707Z" transform="translate(-1068.104 -316.551)" fill="url(#j)"/><path d="M1083.349,345.392V602.349c0,12.99,9.369,23.576,21.037,23.769l471.1,6.479c11.568.193,21.052-10.167,21.095-23.047l.787-254.662c.032-9.209-6.56-16.755-14.83-16.978L1100.22,327.063C1090.97,326.814,1083.349,335.092,1083.349,345.392Z" transform="translate(-1068.104 -316.551)" fill="url(#k)"/><path d="M1600.127,643.016h-.013l-516.777-9.8a.613.613,0,0,1,.025-1.226l516.776,9.8a.614.614,0,0,1-.011,1.228Z" transform="translate(-1068.104 -316.551)" fill="#fff" opacity="0.65"/></g><g transform="translate(119.867)"><g transform="translate(276.879 207.085)"><path d="M1505.58,631.1c66.3-39.664,78.118-107.9,77.9-152.474-.091-18.369-22.955-26.579-34.745-12.492-47.333,56.559-73.442,130.205-83.885,164.966Z" transform="translate(-1464.85 -459.013)" fill="url(#l)"/><path d="M1480.986,631.1a239.449,239.449,0,0,0,19.391-20.848c2.717-3.165,5.238-6.482,7.805-9.767,2.459-3.364,4.992-6.677,7.34-10.121,4.795-6.818,9.232-13.877,13.495-21.031a370.868,370.868,0,0,0,22.362-44.6q4.855-11.489,8.9-23.292c2.665-7.874,5.142-15.795,7.049-23.917a.9.9,0,0,0-1.721-.5l-.009.025c-2.673,7.772-5.6,15.5-8.717,23.12-3.087,7.637-6.374,15.188-9.805,22.666-3.476,7.456-7.027,14.874-10.856,22.149-1.876,3.656-3.835,7.268-5.795,10.878-2.02,3.577-4.028,7.16-6.138,10.682-1.029,1.777-2.065,3.55-3.152,5.29s-2.13,3.511-3.228,5.244l-3.332,5.177c-1.1,1.735-2.286,3.408-3.408,5.126-2.24,3.44-4.665,6.75-7.017,10.114-2.477,3.27-4.839,6.631-7.4,9.836a305.489,305.489,0,0,1-20.418,23.77Z" transform="translate(-1464.85 -459.013)" opacity="0.5" fill="url(#m)"/></g><g transform="translate(303.345 295.206)"><path d="M1593.909,548c-44.313,14.519-85.116,60.992-102.593,83.1h45.646c41.369-14.923,63.972-39.5,75.971-58.781C1621.049,559.272,1608.507,543.214,1593.909,548Z" transform="translate(-1491.316 -547.133)" fill="url(#n)"/><path d="M1607.4,558.527a.77.77,0,0,0-1.085-.072l-.012.01c-4.545,3.98-9.255,7.821-13.989,11.605-2.376,1.882-4.754,3.766-7.151,5.622-2.415,1.833-4.806,3.7-7.242,5.5l-7.312,5.41-7.391,5.3c-4.98,3.457-9.96,6.919-15.034,10.238-5.018,3.407-10.189,6.573-15.3,9.833l-7.8,4.677-3.9,2.335-3.954,2.245c-2.639,1.49-5.263,3.009-7.916,4.476l-8.033,4.261c-.7.372-1.4.748-2.1,1.123h3.983c5.089-2.572,10.125-5.244,15.071-8.082l3.992-2.215c1.323-.754,2.626-1.542,3.934-2.317l7.847-4.671c5.143-3.254,10.346-6.419,15.394-9.821q15.242-10.056,29.773-21.133c2.424-1.839,4.8-3.735,7.209-5.6,2.385-1.889,4.75-3.8,7.115-5.72,4.688-3.887,9.32-7.823,13.837-11.933A.771.771,0,0,0,1607.4,558.527Z" transform="translate(-1491.316 -547.133)" opacity="0.5" fill="url(#o)"/></g><path d="M1489.907,631.43l-301.936-3.818c.062-3.725.844-36.8,9.109-83.116,11.535-64.625,31.521-120.21,59.408-165.213,22.767-36.74,33.667-68.9,38.8-89.4a219.539,219.539,0,0,0,4.652-23.825,14.28,14.28,0,0,1,14.132-12.381c43.7-.063,224.759-1.314,272.809-1.748a15.4,15.4,0,0,1,15.492,16.621c-2.453,31.271-13.794,100.919-64.381,182.558C1492.91,523.862,1489.924,630.381,1489.907,631.43Z" transform="translate(-1187.971 -251.928)" fill="url(#p)"/><path d="M1515.092,294.492h-135.9a7.118,7.118,0,1,0,0,14.237h135.9a7.118,7.118,0,0,0,0-14.237Z" transform="translate(-1187.971 -251.928)" fill="#fff" opacity="0.58"/><path d="M1530.947,330.732H1327.1c-5.9,0-10.677,3.186-10.677,7.118s4.78,7.119,10.677,7.119h203.846c5.9,0,10.677-3.188,10.677-7.119S1536.844,330.732,1530.947,330.732Z" transform="translate(-1187.971 -251.928)" fill="#fff" opacity="0.58"/><path d="M1511.532,365.03H1307.687c-5.9,0-10.679,3.188-10.679,7.119s4.782,7.118,10.679,7.118h203.845c5.9,0,10.677-3.186,10.677-7.118S1517.429,365.03,1511.532,365.03Z" transform="translate(-1187.971 -251.928)" fill="#fff" opacity="0.58"/><path d="M1492.119,399.329H1288.272c-5.9,0-10.677,3.186-10.677,7.119s4.78,7.118,10.677,7.118h203.847c5.9,0,10.677-3.186,10.677-7.118S1498.016,399.329,1492.119,399.329Z" transform="translate(-1187.971 -251.928)" fill="#fff" opacity="0.58"/><path d="M1437.76,539.019H1233.914c-5.9,0-10.677,3.186-10.677,7.118s4.78,7.119,10.677,7.119H1437.76c5.9,0,10.677-3.188,10.677-7.119S1443.657,539.019,1437.76,539.019Z" transform="translate(-1187.971 -251.928)" fill="#fff" opacity="0.58"/><path d="M1428.985,574.057H1225.139c-5.9,0-10.677,3.188-10.677,7.119s4.78,7.118,10.677,7.118h203.847c5.9,0,10.677-3.186,10.677-7.118S1434.882,574.057,1428.985,574.057Z" transform="translate(-1187.971 -251.928)" fill="#fff" opacity="0.58"/></g><g transform="translate(259.422 73.6)"><path d="M1343,325.527h102.32l-9.66,34.233h-3.377q.188-2.719.189-4.783,0-9.754-5.721-15.148t-19.321-6.142l-28.322,95.758q-2.348,7.972-2.345,11.816a6.658,6.658,0,0,0,2.907,5.675q2.905,2.11,11.817,2.3l-.845,3.47h-63.118l1.125-3.47q9.658,0,14.068-3.61t8.066-16.178l28.324-95.758q-14.632.469-24.479,6.377t-18.007,19.7h-3.659Z" transform="translate(-1327.525 -325.527)" fill="#fff"/><g transform="translate(0.097 144.448)"><path d="M1343.062,499.151a25.859,25.859,0,0,1-2.886,1.049,12.122,12.122,0,0,1-3.587.526,8.291,8.291,0,0,1-2.3-.307,5.04,5.04,0,0,1-1.882-.984,4.791,4.791,0,0,1-1.29-1.75,6.316,6.316,0,0,1-.481-2.6V481.916h-3.018v-4.505h3.018v-7.436h5.861v7.436h4.812v4.505H1336.5v11.2a2.084,2.084,0,0,0,.634,1.728,2.422,2.422,0,0,0,1.554.5,5.375,5.375,0,0,0,1.793-.305q.876-.3,1.4-.525Z" transform="translate(-1327.622 -469.975)" fill="#fff"/><path d="M1356.185,500.769a12.742,12.742,0,0,1-4.986-.94,11.245,11.245,0,0,1-6.233-6.321,12.068,12.068,0,0,1-.853-4.506,12.783,12.783,0,0,1,.83-4.615,11.26,11.26,0,0,1,2.407-3.8,11.46,11.46,0,0,1,3.828-2.6,12.734,12.734,0,0,1,5.051-.963,12.433,12.433,0,0,1,5.009.963,11.547,11.547,0,0,1,3.761,2.58,10.989,10.989,0,0,1,2.362,3.763,12.531,12.531,0,0,1,.809,4.462q0,.569-.022,1.092a4.362,4.362,0,0,1-.11.875h-17.714a6.78,6.78,0,0,0,.656,2.407,5.949,5.949,0,0,0,1.356,1.793,5.861,5.861,0,0,0,1.881,1.137,6.184,6.184,0,0,0,2.188.395,6.763,6.763,0,0,0,3.3-.853,4.521,4.521,0,0,0,2.121-2.252l5.031,1.4a10.217,10.217,0,0,1-4.047,4.308A12.528,12.528,0,0,1,1356.185,500.769Zm5.949-13.822a6.1,6.1,0,0,0-1.9-4.133,5.968,5.968,0,0,0-8.114.022,6,6,0,0,0-1.29,1.793,6.3,6.3,0,0,0-.591,2.319Z" transform="translate(-1327.622 -469.975)" fill="#fff"/><path d="M1374.556,477.411l4.943,7.174.349.787.438-.787,4.9-7.174h6.037l-8.18,11.5,8.311,11.417h-6.037l-5.073-7.131-.395-.744-.349.744-5.031,7.131h-6.037l8.268-11.417-8.135-11.5Z" transform="translate(-1327.622 -469.975)" fill="#fff"/><path d="M1407.886,499.151A25.961,25.961,0,0,1,1405,500.2a12.135,12.135,0,0,1-3.587.526,8.309,8.309,0,0,1-2.3-.307,5.021,5.021,0,0,1-1.881-.984,4.775,4.775,0,0,1-1.29-1.75,6.316,6.316,0,0,1-.481-2.6V481.916h-3.019v-4.505h3.019v-7.436h5.861v7.436h4.812v4.505h-4.812v11.2a2.08,2.08,0,0,0,.634,1.728,2.419,2.419,0,0,0,1.553.5,5.382,5.382,0,0,0,1.793-.305q.873-.3,1.4-.525Z" transform="translate(-1327.622 -469.975)" fill="#fff"/></g><g transform="translate(71.898 99.175)"><path d="M1407.383,430.3h-7.959v-5.6h22.657v5.6h-8.048v23.883h-6.649Z" transform="translate(-1399.424 -424.702)" fill="#fff"/><path d="M1443.163,441.716h-10.847v7h12.115v5.468h-18.765V424.7h18.152v5.466h-11.5v6.125h10.847Z" transform="translate(-1399.424 -424.702)" fill="#fff"/><path d="M1464.509,454.183l-2.669-5.337c-1.092-2.056-1.793-3.587-2.624-5.293h-.086c-.612,1.706-1.356,3.237-2.319,5.293l-2.405,5.337h-7.612l8.53-14.916L1447.1,424.7h7.654l2.581,5.38c.875,1.793,1.531,3.237,2.231,4.9h.088c.7-1.881,1.268-3.192,2.012-4.9l2.493-5.38h7.61l-8.311,14.39,8.749,15.092Z" transform="translate(-1399.424 -424.702)" fill="#fff"/><path d="M1481.786,430.3h-7.962v-5.6h22.659v5.6h-8.049v23.883h-6.648Z" transform="translate(-1399.424 -424.702)" fill="#fff"/></g><g transform="translate(92.94 139.983)"><path d="M1427.508,465.511v6.08h5.511v2.93h-5.511v11.417c0,2.624.744,4.112,2.887,4.112a8.57,8.57,0,0,0,2.231-.262l.174,2.887a9.435,9.435,0,0,1-3.411.525,5.333,5.333,0,0,1-4.156-1.618c-1.094-1.137-1.487-3.018-1.487-5.511V474.521h-3.28v-2.93h3.28v-5.074Z" transform="translate(-1420.465 -465.511)" fill="#fff"/><path d="M1439.23,482.875c.088,5.205,3.411,7.348,7.26,7.348a13.916,13.916,0,0,0,5.861-1.092l.657,2.755a17.151,17.151,0,0,1-7.043,1.311c-6.517,0-10.411-4.286-10.411-10.673s3.763-11.415,9.929-11.415c6.912,0,8.748,6.08,8.748,9.973a14.326,14.326,0,0,1-.131,1.793Zm11.285-2.755c.043-2.449-1.006-6.255-5.336-6.255-3.894,0-5.6,3.587-5.906,6.255Z" transform="translate(-1420.465 -465.511)" fill="#fff"/><path d="M1460.662,471.591l3.019,4.548c.787,1.182,1.443,2.274,2.143,3.456h.131c.7-1.268,1.4-2.362,2.1-3.5l2.974-4.505h4.155l-7.217,10.235,7.436,10.935h-4.374l-3.106-4.767c-.832-1.225-1.531-2.407-2.274-3.675h-.088c-.7,1.268-1.444,2.405-2.231,3.675l-3.062,4.767h-4.243l7.524-10.8-7.174-10.366Z" transform="translate(-1420.465 -465.511)" fill="#fff"/><path d="M1484.325,465.511v6.08h5.512v2.93h-5.512v11.417c0,2.624.744,4.112,2.886,4.112a8.552,8.552,0,0,0,2.231-.262l.176,2.887a9.444,9.444,0,0,1-3.413.525,5.33,5.33,0,0,1-4.155-1.618c-1.094-1.137-1.487-3.018-1.487-5.511V474.521h-3.28v-2.93h3.28v-5.074Z" transform="translate(-1420.465 -465.511)" fill="#fff"/></g><g transform="translate(82.05 175.056)"><path d="M1419.142,500.584l-1.666,5.809h3.354l-.363,1.346h-3.332l-3.673,12.6a12.574,12.574,0,0,0-.6,2.627.8.8,0,0,0,.172.555.524.524,0,0,0,.4.193,2.5,2.5,0,0,0,1.409-.748,25.786,25.786,0,0,0,2.286-2.627l.7.535a15.171,15.171,0,0,1-3.717,4.037,4.266,4.266,0,0,1-2.412.811,2.1,2.1,0,0,1-1.538-.588,2.018,2.018,0,0,1-.6-1.506,14.246,14.246,0,0,1,.683-3.524l3.567-12.366H1410.6l.213-.833a10.437,10.437,0,0,0,3.908-1.911,17.783,17.783,0,0,0,3.482-4.411Z" transform="translate(-1409.575 -500.584)" fill="#fff"/><path d="M1425.145,517.158a13.261,13.261,0,0,0-.15,1.773,4.385,4.385,0,0,0,1.346,3.235,4.462,4.462,0,0,0,3.267,1.334,7.206,7.206,0,0,0,2.959-.63,23.932,23.932,0,0,0,4.218-2.787l.448.62q-5.063,5.019-9.654,5.019a5.671,5.671,0,0,1-4.7-1.966,6.761,6.761,0,0,1-1.581-4.335,12.784,12.784,0,0,1,1.966-6.515,14.817,14.817,0,0,1,4.933-5.178,11.413,11.413,0,0,1,6.109-1.848,5.126,5.126,0,0,1,3.354.918,2.773,2.773,0,0,1,1.088,2.179,5.129,5.129,0,0,1-1.409,3.4,12.962,12.962,0,0,1-5.468,3.417A30.313,30.313,0,0,1,1425.145,517.158Zm.15-1.046a18.056,18.056,0,0,0,5.146-1.239,10.369,10.369,0,0,0,3.941-2.809,5.061,5.061,0,0,0,1.313-3.107,1.944,1.944,0,0,0-.566-1.453,2.207,2.207,0,0,0-1.613-.555q-2.177,0-4.623,2.317A13.919,13.919,0,0,0,1425.295,516.112Z" transform="translate(-1409.575 -500.584)" fill="#fff"/><path d="M1446.928,505.881a8.929,8.929,0,0,1,1.581,2.221,29.672,29.672,0,0,1,1.261,4.037l1.879-2.819a11.738,11.738,0,0,1,1.814-1.954,7.418,7.418,0,0,1,1.881-1.271,2.9,2.9,0,0,1,1.131-.213,2.1,2.1,0,0,1,1.463.49,1.553,1.553,0,0,1,.545,1.2,1.5,1.5,0,0,1-.32,1.111,2,2,0,0,1-1.368.535,2.741,2.741,0,0,1-.96-.193,5.375,5.375,0,0,0-1.346-.342,2.048,2.048,0,0,0-1.218.6,16.906,16.906,0,0,0-3.161,4.293l1.751,7.347a6.618,6.618,0,0,0,.683,2.019.757.757,0,0,0,.556.33,1.766,1.766,0,0,0,1.046-.49,8.412,8.412,0,0,0,2.007-2.564l.747.385a13.375,13.375,0,0,1-3.417,4.186,3.479,3.479,0,0,1-1.986.94,2.126,2.126,0,0,1-1.9-1.346,52.247,52.247,0,0,1-1.858-7.177q-3.333,5.789-5.341,7.455a4.027,4.027,0,0,1-2.519,1.068,2.313,2.313,0,0,1-1.559-.62,1.627,1.627,0,0,1-.513-1.261,1.6,1.6,0,0,1,.47-1.174,1.572,1.572,0,0,1,1.154-.47,2.258,2.258,0,0,1,1.451.685,1.579,1.579,0,0,0,.854.49,1.162,1.162,0,0,0,.661-.342,16.114,16.114,0,0,0,2.734-3.5,34.179,34.179,0,0,0,2.264-3.888q-1.323-5.188-1.431-5.488a4.006,4.006,0,0,0-1.281-1.966,3.921,3.921,0,0,0-2.327-.576q-.491,0-1.133.043v-.77Z" transform="translate(-1409.575 -500.584)" fill="#fff"/><path d="M1470.123,500.584l-1.666,5.809h3.353l-.363,1.346h-3.332l-3.673,12.6a12.588,12.588,0,0,0-.6,2.627.809.809,0,0,0,.172.555.524.524,0,0,0,.4.193,2.5,2.5,0,0,0,1.409-.748,25.6,25.6,0,0,0,2.286-2.627l.7.535a15.172,15.172,0,0,1-3.715,4.037,4.274,4.274,0,0,1-2.414.811,2.1,2.1,0,0,1-1.538-.588,2.018,2.018,0,0,1-.6-1.506,14.246,14.246,0,0,1,.683-3.524l3.567-12.366h-3.225l.213-.833a10.453,10.453,0,0,0,3.91-1.911,17.784,17.784,0,0,0,3.48-4.411Z" transform="translate(-1409.575 -500.584)" fill="#fff"/></g></g></g><g transform="translate(201.492 122.565)"><rect width="160.13" height="68.55" transform="translate(23.358 131.616)" fill="url(#q)"/><g transform="translate(27.745 138.745)" opacity="0.2"><rect width="7.678" height="7.678" rx="0.678" fill="url(#r)"/><rect width="7.677" height="7.678" rx="0.678" transform="translate(11.516)" fill="url(#s)"/><rect width="7.677" height="7.678" rx="0.678" transform="translate(22.484)" fill="url(#s)"/><rect width="7.677" height="7.678" rx="0.678" transform="translate(33.452)" fill="url(#s)"/><rect width="7.677" height="7.678" rx="0.678" transform="translate(44.42)" fill="url(#s)"/><rect width="7.677" height="7.678" rx="0.678" transform="translate(55.387)" fill="url(#s)"/><rect width="7.677" height="7.678" rx="0.678" transform="translate(66.355)" fill="url(#s)"/><rect width="7.677" height="7.678" rx="0.678" transform="translate(77.323)" fill="url(#s)"/><rect width="7.677" height="7.678" rx="0.678" transform="translate(88.291)" fill="url(#s)"/><rect width="7.677" height="7.678" rx="0.678" transform="translate(99.807)" fill="url(#s)"/><rect width="7.677" height="7.678" rx="0.678" transform="translate(110.775)" fill="url(#s)"/><rect width="7.677" height="7.678" rx="0.678" transform="translate(121.743)" fill="url(#s)"/><rect width="7.677" height="7.678" rx="0.678" transform="translate(132.711)" fill="url(#s)"/><rect width="7.678" height="7.678" rx="0.678" transform="translate(143.679)" fill="url(#r)"/><g transform="translate(0 10.42)"><rect width="7.678" height="7.678" rx="0.678" fill="url(#r)"/><rect width="7.677" height="7.678" rx="0.678" transform="translate(11.516)" fill="url(#s)"/><rect width="7.677" height="7.678" rx="0.678" transform="translate(22.484)" fill="url(#s)"/><rect width="7.677" height="7.678" rx="0.678" transform="translate(33.452)" fill="url(#s)"/><rect width="7.677" height="7.678" rx="0.678" transform="translate(44.42)" fill="url(#s)"/><rect width="7.677" height="7.678" rx="0.678" transform="translate(55.387)" fill="url(#s)"/><rect width="7.677" height="7.678" rx="0.678" transform="translate(66.355)" fill="url(#s)"/><rect width="7.677" height="7.678" rx="0.678" transform="translate(77.323)" fill="url(#s)"/><rect width="7.677" height="7.678" rx="0.678" transform="translate(88.291)" fill="url(#s)"/><rect width="7.677" height="7.678" rx="0.678" transform="translate(99.807)" fill="url(#s)"/><rect width="7.677" height="7.678" rx="0.678" transform="translate(110.775)" fill="url(#s)"/><rect width="7.677" height="7.678" rx="0.678" transform="translate(121.743)" fill="url(#s)"/><rect width="7.677" height="7.678" rx="0.678" transform="translate(132.711)" fill="url(#s)"/><rect width="7.678" height="7.678" rx="0.678" transform="translate(143.679)" fill="url(#r)"/></g><g transform="translate(0 20.839)"><rect width="7.678" height="7.678" rx="0.678" fill="url(#r)"/><rect width="7.677" height="7.678" rx="0.678" transform="translate(11.516)" fill="url(#s)"/><rect width="7.677" height="7.678" rx="0.678" transform="translate(22.484)" fill="url(#s)"/><rect width="7.677" height="7.678" rx="0.678" transform="translate(33.452)" fill="url(#s)"/><rect width="7.677" height="7.678" rx="0.678" transform="translate(44.42)" fill="url(#s)"/><rect width="7.677" height="7.678" rx="0.678" transform="translate(55.387)" fill="url(#s)"/><rect width="7.677" height="7.678" rx="0.678" transform="translate(66.355)" fill="url(#s)"/><rect width="7.677" height="7.678" rx="0.678" transform="translate(77.323)" fill="url(#s)"/><rect width="7.677" height="7.678" rx="0.678" transform="translate(88.291)" fill="url(#s)"/><rect width="7.677" height="7.678" rx="0.678" transform="translate(99.807)" fill="url(#s)"/><rect width="7.677" height="7.678" rx="0.678" transform="translate(110.775)" fill="url(#s)"/><rect width="7.677" height="7.678" rx="0.678" transform="translate(121.743)" fill="url(#s)"/><rect width="7.677" height="7.678" rx="0.678" transform="translate(132.711)" fill="url(#s)"/><rect width="7.678" height="7.678" rx="0.678" transform="translate(143.679)" fill="url(#r)"/></g><g transform="translate(0 31.259)"><rect width="7.678" height="7.678" rx="0.678" fill="url(#r)"/><rect width="7.677" height="7.678" rx="0.678" transform="translate(11.516)" fill="url(#s)"/><rect width="7.677" height="7.678" rx="0.678" transform="translate(22.484)" fill="url(#s)"/><rect width="7.677" height="7.678" rx="0.678" transform="translate(33.452)" fill="url(#s)"/><rect width="7.677" height="7.678" rx="0.678" transform="translate(44.42)" fill="url(#s)"/><rect width="7.677" height="7.678" rx="0.678" transform="translate(55.387)" fill="url(#s)"/><rect width="7.677" height="7.678" rx="0.678" transform="translate(66.355)" fill="url(#s)"/><rect width="7.677" height="7.678" rx="0.678" transform="translate(77.323)" fill="url(#s)"/><rect width="7.677" height="7.678" rx="0.678" transform="translate(88.291)" fill="url(#s)"/><rect width="7.677" height="7.678" rx="0.678" transform="translate(99.807)" fill="url(#s)"/><rect width="7.677" height="7.678" rx="0.678" transform="translate(110.775)" fill="url(#s)"/><rect width="7.677" height="7.678" rx="0.678" transform="translate(121.743)" fill="url(#s)"/><rect width="7.677" height="7.678" rx="0.678" transform="translate(132.711)" fill="url(#s)"/><rect width="7.678" height="7.678" rx="0.678" transform="translate(143.679)" fill="url(#r)"/></g><g transform="translate(0 42.227)"><rect width="7.678" height="7.678" rx="0.678" fill="url(#r)"/><rect width="7.677" height="7.678" rx="0.678" transform="translate(11.516)" fill="url(#s)"/><rect width="7.677" height="7.678" rx="0.678" transform="translate(22.484)" fill="url(#s)"/><rect width="7.677" height="7.678" rx="0.678" transform="translate(33.452)" fill="url(#s)"/><rect width="7.677" height="7.678" rx="0.678" transform="translate(44.42)" fill="url(#s)"/><rect width="7.677" height="7.678" rx="0.678" transform="translate(55.387)" fill="url(#s)"/><rect width="7.677" height="7.678" rx="0.678" transform="translate(66.355)" fill="url(#s)"/><rect width="7.677" height="7.678" rx="0.678" transform="translate(77.323)" fill="url(#s)"/><rect width="7.677" height="7.678" rx="0.678" transform="translate(88.291)" fill="url(#s)"/><rect width="7.677" height="7.678" rx="0.678" transform="translate(99.807)" fill="url(#s)"/><rect width="7.677" height="7.678" rx="0.678" transform="translate(110.775)" fill="url(#s)"/><rect width="7.677" height="7.678" rx="0.678" transform="translate(121.743)" fill="url(#s)"/><rect width="7.677" height="7.678" rx="0.678" transform="translate(132.711)" fill="url(#s)"/><rect width="7.678" height="7.678" rx="0.678" transform="translate(143.679)" fill="url(#r)"/></g></g><g transform="translate(17.874)"><path d="M1251.5,364.873h-79.874c-24.943,0-46.32,19.948-46.32,44.893v86.216c0,2.513,3.193,4.894,5.707,4.894h161.1c2.513,0,3.743-2.381,3.743-4.894V409.766C1295.853,384.821,1276.439,364.873,1251.5,364.873Z" transform="translate(-1125.303 -364.873)" fill="url(#cj)"/><path d="M1292.113,556.814H1131.007c-2.509,0-5.7,1.525-5.7,4.034v21.738c0,6.122,1.8,11.954,4,17.281a47.432,47.432,0,0,0,4.686,8.311,45.792,45.792,0,0,0,37.629,19.928H1251.5a45.267,45.267,0,0,0,37.339-19.928,43.678,43.678,0,0,0,3.993-8.222,45.249,45.249,0,0,0,3.023-17.37V560.848C1295.853,558.339,1294.622,556.814,1292.113,556.814Z" transform="translate(-1125.303 -364.873)" fill="url(#ck)"/><path d="M1251.5,364.873h-79.874c-24.943,0-46.32,19.948-46.32,44.893v86.216c0,2.513,3.193,4.894,5.707,4.894h161.1c2.513,0,3.743-2.381,3.743-4.894V409.766C1295.853,384.821,1276.439,364.873,1251.5,364.873Z" transform="translate(-1125.303 -364.873)" fill="url(#cl)"/><path d="M1292.113,556.814H1131.007c-2.509,0-5.7,1.525-5.7,4.034v21.738c0,6.122,1.8,11.954,4,17.281a47.432,47.432,0,0,0,4.686,8.311,45.792,45.792,0,0,0,37.629,19.928H1251.5a45.267,45.267,0,0,0,37.339-19.928,43.678,43.678,0,0,0,3.993-8.222,45.249,45.249,0,0,0,3.023-17.37V560.848C1295.853,558.339,1294.622,556.814,1292.113,556.814Z" transform="translate(-1125.303 -364.873)" fill="url(#cl)"/></g><path d="M1293.234,600.137a60.272,60.272,0,0,1-4.4,8.226H1134.284a60.421,60.421,0,0,1-4.4-8.226Z" transform="translate(-1107.429 -364.873)" fill="#fff" opacity="0.7"/><path d="M1259.659,370.906H1161.5a.548.548,0,0,1,0-1.1h98.163a.548.548,0,0,1,0,1.1Z" transform="translate(-1107.429 -364.873)" fill="#fff"/><path d="M1259.659,620.976H1161.5a.548.548,0,0,1,0-1.1h98.163a.548.548,0,0,1,0,1.1Z" transform="translate(-1107.429 -364.873)" fill="#fff"/><g transform="translate(85.846 46.2)"><g transform="translate(0 16.368)"><path d="M1227.845,465.779h-15.378V459.2h9.1c4.437,0,6.8-4.266,6.8-8.7V429.211a1.649,1.649,0,1,0-3.29,0v21.283c0,2.486-1.029,4.865-3.515,4.865h-18.8c-2.486,0-5.658-2.379-5.658-4.865V429.717a1.925,1.925,0,0,0-3.838,0v20.777c0,4.439,5.057,8.7,9.5,8.7h6.407v6.58h-12.686a1.926,1.926,0,0,0,0,3.839h31.354a1.926,1.926,0,0,0,0-3.839Z" transform="translate(-1193.274 -427.441)" fill="#fff"/></g><g transform="translate(8.773)"><path d="M1210.823,411.073a8.765,8.765,0,0,0-8.775,8.713v18.69c0,.265.37.979.635.979h16.468c.265,0,.445-.713.445-.979v-18.69A8.765,8.765,0,0,0,1210.823,411.073Z" transform="translate(-1202.048 -411.073)" fill="#fff"/><path d="M1219.151,442.2h-16.468c-.265,0-.635-.121-.635.144V443.6a8.774,8.774,0,0,0,17.548,0v-1.262C1219.6,442.076,1219.416,442.2,1219.151,442.2Z" transform="translate(-1202.048 -411.073)" fill="#fff"/></g></g><g transform="translate(0 46.395)" opacity="0.7"><path d="M1175.977,453.494a1.646,1.646,0,0,1-1.644,1.646h0a1.646,1.646,0,0,1-1.646-1.646v-24.13a1.645,1.645,0,0,1,1.646-1.644h0a1.645,1.645,0,0,1,1.644,1.644Z" transform="translate(-1107.429 -411.268)" fill="#fff"/><path d="M1142.526,453.494a1.646,1.646,0,0,1-1.646,1.646h0a1.646,1.646,0,0,1-1.644-1.646v-24.13a1.645,1.645,0,0,1,1.644-1.644h0a1.645,1.645,0,0,1,1.646,1.644Z" transform="translate(-1107.429 -411.268)" fill="#fff"/><path d="M1110.719,453.494a1.646,1.646,0,0,1-1.646,1.646h0a1.646,1.646,0,0,1-1.644-1.646v-24.13a1.645,1.645,0,0,1,1.644-1.644h0a1.645,1.645,0,0,1,1.646,1.644Z" transform="translate(-1107.429 -411.268)" fill="#fff"/><path d="M1165.01,464.463a1.645,1.645,0,0,1-1.646,1.644h0a1.646,1.646,0,0,1-1.646-1.644V412.912a1.646,1.646,0,0,1,1.646-1.644h0a1.645,1.645,0,0,1,1.646,1.644Z" transform="translate(-1107.429 -411.268)" fill="#fff"/><path d="M1121.138,464.463a1.645,1.645,0,0,1-1.646,1.644h0a1.645,1.645,0,0,1-1.644-1.644V412.912a1.645,1.645,0,0,1,1.644-1.644h0a1.645,1.645,0,0,1,1.646,1.644Z" transform="translate(-1107.429 -411.268)" fill="#fff"/><path d="M1153.492,459.8a1.37,1.37,0,0,1-1.37,1.371h0a1.371,1.371,0,0,1-1.37-1.371V423.058a1.371,1.371,0,0,1,1.37-1.371h0a1.37,1.37,0,0,1,1.37,1.371Z" transform="translate(-1107.429 -411.268)" fill="#fff"/><path d="M1131.01,458.155a1.372,1.372,0,0,1-1.372,1.372h0a1.371,1.371,0,0,1-1.37-1.372V421.413a1.371,1.371,0,0,1,1.37-1.372h0a1.372,1.372,0,0,1,1.372,1.372Z" transform="translate(-1107.429 -411.268)" fill="#fff"/></g><g transform="translate(138.303 46.395)" opacity="0.7"><path d="M1314.28,453.494a1.646,1.646,0,0,1-1.644,1.646h0a1.646,1.646,0,0,1-1.646-1.646v-24.13a1.645,1.645,0,0,1,1.646-1.644h0a1.645,1.645,0,0,1,1.644,1.644Z" transform="translate(-1245.732 -411.268)" fill="#fff"/><path d="M1280.829,453.494a1.646,1.646,0,0,1-1.646,1.646h0a1.646,1.646,0,0,1-1.644-1.646v-24.13a1.645,1.645,0,0,1,1.644-1.644h0a1.645,1.645,0,0,1,1.646,1.644Z" transform="translate(-1245.732 -411.268)" fill="#fff"/><path d="M1249.022,453.494a1.646,1.646,0,0,1-1.646,1.646h0a1.646,1.646,0,0,1-1.644-1.646v-24.13a1.645,1.645,0,0,1,1.644-1.644h0a1.645,1.645,0,0,1,1.646,1.644Z" transform="translate(-1245.732 -411.268)" fill="#fff"/><path d="M1303.313,464.463a1.645,1.645,0,0,1-1.646,1.644h0a1.645,1.645,0,0,1-1.644-1.644V412.912a1.645,1.645,0,0,1,1.644-1.644h0a1.645,1.645,0,0,1,1.646,1.644Z" transform="translate(-1245.732 -411.268)" fill="#fff"/><path d="M1259.441,464.463a1.645,1.645,0,0,1-1.646,1.644h0a1.645,1.645,0,0,1-1.644-1.644V412.912a1.645,1.645,0,0,1,1.644-1.644h0a1.645,1.645,0,0,1,1.646,1.644Z" transform="translate(-1245.732 -411.268)" fill="#fff"/><path d="M1291.8,459.8a1.371,1.371,0,0,1-1.372,1.371h0a1.371,1.371,0,0,1-1.37-1.371V423.058a1.371,1.371,0,0,1,1.37-1.371h0a1.371,1.371,0,0,1,1.372,1.371Z" transform="translate(-1245.732 -411.268)" fill="#fff"/><path d="M1269.313,458.155a1.372,1.372,0,0,1-1.372,1.372h0a1.371,1.371,0,0,1-1.37-1.372V421.413a1.371,1.371,0,0,1,1.37-1.372h0a1.372,1.372,0,0,1,1.372,1.372Z" transform="translate(-1245.732 -411.268)" fill="#fff"/></g></g><g transform="translate(125.458 229.998)"><g transform="translate(15.704 187.856)"><path d="M1062.009,670.4a19.448,19.448,0,0,0,6.433-.919c0,.359,0,.723-.01,1.1a.714.714,0,0,1-.68.725l-19.794-.128a.9.9,0,0,1-.728-1.316C1049.826,670.079,1056.436,670.559,1062.009,670.4Z" transform="translate(-1047.098 -660.162)" fill="url(#cn)"/><path d="M1067.438,662.812a3.629,3.629,0,0,0-3.61-2.649l-1.654.052c-8.8,2.11-13.25,6.974-15,9.416a.971.971,0,0,0-.078.148c2.6.215,9.2.695,14.777.539a19.508,19.508,0,0,0,6.435-.919A24.906,24.906,0,0,0,1067.438,662.812Z" transform="translate(-1047.098 -660.162)" fill="url(#co)"/></g><path d="M1059.555,654.536l1.382,6.657a1.091,1.091,0,0,0,.931.895,9.246,9.246,0,0,0,2.141-.035,1.368,1.368,0,0,0,1.084-1.607l-.961-5.91Z" transform="translate(-1031.394 -472.306)" fill="url(#cp)"/><g transform="translate(50.371 187.859)"><path d="M1088.2,670.4a19.464,19.464,0,0,1-6.433-.919c0,.359,0,.723.012,1.1a.713.713,0,0,0,.679.725l19.8-.128a.9.9,0,0,0,.726-1.316C1100.382,670.079,1093.771,670.559,1088.2,670.4Z" transform="translate(-1081.765 -660.165)" fill="url(#cq)"/><path d="M1102.977,669.864a.924.924,0,0,0-.078-.15c-1.748-2.443-6.2-7.307-15-9.415l-4.22-.134s-1.879,3.267-1.915,9.317a19.464,19.464,0,0,0,6.433.919C1093.771,670.559,1100.382,670.079,1102.977,669.864Z" transform="translate(-1081.765 -660.165)" fill="url(#cr)"/></g><path d="M1082.9,653.769c.046.314.625,5.1.849,6.949a.919.919,0,0,0,.775.83,9.672,9.672,0,0,0,2.9-.045,1.249,1.249,0,0,0,.947-1.252v-7.507Z" transform="translate(-1031.394 -472.306)" fill="url(#cs)"/><path d="M1079.512,566.51s10.18,38.686,10,87.369a1.885,1.885,0,0,1-1.494,1.837,21.993,21.993,0,0,1-4.72.546,1.749,1.749,0,0,1-1.666-1.46c-1.428-8.372-9.618-55.527-14.286-63.182,0,0-3.071,42-2.09,63.788a1.033,1.033,0,0,1-.911,1.075,17.373,17.373,0,0,1-3.787-.012,1.381,1.381,0,0,1-1.232-1.173c-1.016-7.083-6.868-49.252-6.619-79.627.013-1.714,4.529-9.161,4.529-9.161Z" transform="translate(-1031.394 -472.306)" fill="url(#ct)"/><path d="M1058.875,506.636s-18.047-2.606-13.144,20.238,8.1,34.842,9.026,44.3c3.231,2.077,23.935-.016,24.735-.408s1.1.487,1.049-3.591,6.678-37.05,7.223-39,16.573,22.083,14.266,7.85-14.051-32.394-26.868-31.274S1058.875,506.636,1058.875,506.636Z" transform="translate(-1031.394 -472.306)" fill="url(#cu)"/><path d="M1087.763,528.181s13.8,16.345,15.65,16.345,3.385-6.132,3.385-6.132l-9.518-16.295Z" transform="translate(-1031.394 -472.306)" fill="url(#cv)"/><g transform="translate(21.463)"><g transform="translate(7.342 21.737)"><path d="M1061.522,494.423l-1.323,13.518s7.6,2.291,13.136-1.611l-3.888-12.287Z" transform="translate(-1060.199 -494.042)" fill="url(#cw)"/></g><path d="M1075.769,481.422s2.031,9.326,1.386,13.881-.254,7.673-5.643,7.544-9.263-3.594-10.749-8.555c0,0-2.35-7.657-.953-10.323S1075.769,481.422,1075.769,481.422Z" transform="translate(-1052.857 -472.306)" fill="url(#cx)"/><path d="M1063.184,491.419l.323-.072a.729.729,0,0,0,.545-.912c-.452-1.565-1.238-5.1.762-5.494,2.578-.5,12.405-.553,15.109-3.5a6.355,6.355,0,0,0-.683-9.035.366.366,0,0,0-.5.059l-.3.369a.36.36,0,0,1-.638-.2h0a.359.359,0,0,0-.62-.218c-.826.878-2.84,2.167-7.528,2.1-6.662-.091-11.428,1.666-12.415,6.086a.363.363,0,0,1-.607.183c-.416-.383-1.15-.67-2.333-.019-2.061,1.134-2.1,5.128,1.137,9.062a.36.36,0,0,1-.13.565c-.792.317-2.053,1.195.368,3.182a9.3,9.3,0,0,0,5.455,2.375.359.359,0,0,0,.37-.369l-.084-4.074a.361.361,0,0,1,.431-.362Z" transform="translate(-1052.857 -472.306)" fill="url(#cy)"/><path d="M1063.182,492.275s-.336-5.767-3.1-4.718.055,6.4,1.99,7Z" transform="translate(-1052.857 -472.306)" fill="url(#cz)"/></g><path d="M1118.56,505.989a9.9,9.9,0,0,0-3.884-7.717,9.453,9.453,0,0,0-1.017-.679,10.2,10.2,0,0,0-2.983-1.185c-1.128-1.729-1.226,10.163-1.226,10.163l.007.013c-.111.138-.215.284-.311.429a4.058,4.058,0,0,1,.007-.865c.235-2.195-1.44-2.61-1.44-2.091s-.693,3.842-.914,5.171c-.207,1.247,3.426,5.891,3.869,6.452a.025.025,0,0,0,.007.014c.02.082.035.131.035.131s-8.778,28.18-7.843,28.7c.477.269,6.714,5.191,9.226,2.541,2.291-2.43,4.029-27.06,4.313-31.332,0,0,1.62-1.107,2.062-5.717a.062.062,0,0,0,.007-.035,2.451,2.451,0,0,0,.084-.561,1.425,1.425,0,0,0-.022-.242A30.051,30.051,0,0,0,1118.56,505.989Z" transform="translate(-1031.394 -472.306)" fill="url(#da)"/><path d="M1053.191,507.178c-.609-.555-21.13,3.021-21.13,42.478v14.537l7.974.464,9.46-33.234S1058.732,512.235,1053.191,507.178Z" transform="translate(-1031.394 -472.306)" fill="url(#db)"/><path d="M1031.394,564.192l8.308.464,1.855,22.129s1.814,1.794,1.719,5.858-.526,4.47-1.136,3.937-.458-2.668-1.3-3.354-1.372,1.974-.686,3.541,3.276,9.109.761,6.747a15.79,15.79,0,0,1-4.877-9.906,17.547,17.547,0,0,1,.839-6.249Z" transform="translate(-1031.394 -472.306)" fill="url(#dc)"/></g><g transform="translate(91.276 18.097)"><path d="M1064.657,268.5c-30.2-20.461-71.726,1.012-67.087,29.281,4.588,27.958,55.6,8.876,34.512,43.711a.214.214,0,0,0,.324.272C1040.571,334.608,1092.535,287.387,1064.657,268.5Z" transform="translate(-997.213 -260.405)" fill="url(#dd)"/><g transform="translate(30.06 7.88)"><path d="M1028.552,284.721a10.872,10.872,0,0,1,.369,15.354,10.383,10.383,0,0,1-.8.757.741.741,0,0,0,.042,1.175l1.307.919a.747.747,0,0,0,.93-.062q.367-.333.716-.7a13.879,13.879,0,0,0-1.787-20.742.744.744,0,0,0-1.059.179l-.87,1.293a.735.735,0,0,0,.172,1A10.294,10.294,0,0,1,1028.552,284.721Z" transform="translate(-1027.273 -268.285)" fill="#fff"/><path d="M1033.954,279.053a18.711,18.711,0,0,1,.636,26.425l-.006.006a.734.734,0,0,0,.1,1.11l1.283.9.974-.1a21.7,21.7,0,0,0-3.263-32.492.736.736,0,0,0-1.032.2l-.868,1.29a.733.733,0,0,0,.174,1.006A18.565,18.565,0,0,1,1033.954,279.053Z" transform="translate(-1027.273 -268.285)" fill="#fff"/><path d="M1039.355,273.385a26.55,26.55,0,0,1,1.663,36.652.74.74,0,0,0,.122,1.1l1.273.895a.739.739,0,0,0,.983-.115,29.58,29.58,0,0,0-1.95-40.724,29.259,29.259,0,0,0-3.392-2.776.738.738,0,0,0-1.033.2l-.868,1.288a.737.737,0,0,0,.195,1.017A26.412,26.412,0,0,1,1039.355,273.385Z" transform="translate(-1027.273 -268.285)" fill="#fff"/></g></g><path d="M1347.542,514.586l-57.98,26.869,13.248,4.749c-4.111,6.977-16.453,25.706-39.558,32.653a61.961,61.961,0,0,1-16.5,2.591,52.705,52.705,0,0,0,15.857,6.276c32.35,6.955,60.241-20.147,64.222-24.129.657,4.958,6.352,10.659,6.352,10.659Q1340.36,544.419,1347.542,514.586Z" transform="translate(-905.937 -242.308)" fill="url(#de)"/><g transform="translate(282.562 105.788)"><g transform="translate(280.204)"><path d="M1511.692,368.783l-3.326,9.985-5.332-6.545Z" transform="translate(-1468.702 -348.095)" fill="url(#df)"/><path d="M1468.7,348.1l19.086,32.635a2.665,2.665,0,0,0,3.73.9l32.042-20.4a1.067,1.067,0,0,0-.359-1.946Z" transform="translate(-1468.702 -348.095)" fill="url(#k)"/><path d="M1511.688,368.783,1468.7,348.1l37.825,24-.8,2.808Z" transform="translate(-1468.702 -348.095)" fill="url(#dh)"/><path d="M1503.453,374.029l4.914,4.739-1.839-6.677Z" transform="translate(-1468.702 -348.095)" fill="url(#di)"/></g><path d="M1442.388,613.987h0c-.474,0-.947-.006-1.421-.013a.789.789,0,0,1-.78-.8.8.8,0,0,1,.8-.781q.7.009,1.409.013a.79.79,0,0,1,0,1.58Zm3.3,0a.79.79,0,0,1-.007-1.581l1.409-.016a.79.79,0,1,1,.025,1.58q-.711.011-1.419.017Zm-8.014-.073h-.023q-.709-.02-1.418-.043a.79.79,0,1,1,.053-1.58q.7.024,1.409.043a.79.79,0,0,1-.022,1.58Zm12.726-.017a.791.791,0,0,1-.023-1.581q.7-.019,1.409-.046a.79.79,0,0,1,.056,1.579q-.709.026-1.418.046Zm-17.437-.163h-.04c-.473-.023-.945-.049-1.417-.075a.79.79,0,1,1,.088-1.578q.7.041,1.408.075a.79.79,0,0,1-.039,1.579Zm22.149-.026a.79.79,0,0,1-.039-1.579q.7-.035,1.408-.075a.79.79,0,0,1,.088,1.578c-.473.026-.944.052-1.417.075Zm-26.854-.259h-.058l-1.415-.107a.79.79,0,1,1,.124-1.575c.467.036.935.072,1.405.105a.79.79,0,0,1-.056,1.578Zm31.559-.025a.79.79,0,0,1-.055-1.578c.468-.033.938-.066,1.407-.1a.79.79,0,0,1,.12,1.575c-.471.036-.944.071-1.415.1Zm-36.257-.366-.075,0q-.707-.067-1.412-.138a.79.79,0,1,1,.158-1.572c.467.048.935.094,1.4.137a.79.79,0,0,1-.073,1.577Zm40.956-.009a.791.791,0,0,1-.069-1.578q.7-.063,1.4-.13a.79.79,0,1,1,.15,1.574q-.707.067-1.412.13A.613.613,0,0,1,1464.516,613.044Zm4.692-.467a.79.79,0,0,1-.085-1.575l1.4-.157a.79.79,0,1,1,.18,1.569c-.47.055-.94.107-1.409.159Q1469.249,612.577,1469.208,612.577Zm-50.335-.022a.679.679,0,0,1-.094-.006c-.47-.055-.94-.112-1.409-.17a.79.79,0,0,1,.2-1.568c.466.058.932.114,1.4.169a.79.79,0,0,1-.091,1.575Zm55.016-.533a.79.79,0,0,1-.1-1.574q.7-.089,1.4-.183a.79.79,0,0,1,.209,1.567c-.47.063-.938.124-1.408.184A.785.785,0,0,1,1473.889,612.022Zm-59.689-.072a.979.979,0,0,1-.112-.007q-.7-.1-1.4-.2a.79.79,0,1,1,.232-1.562c.464.069.928.135,1.394.2a.79.79,0,0,1-.109,1.572Zm64.36-.568a.79.79,0,0,1-.112-1.572q.7-.1,1.4-.208a.79.79,0,1,1,.236,1.562c-.467.071-.935.141-1.4.209A.768.768,0,0,1,1478.559,611.383Zm-69.018-.146a.821.821,0,0,1-.131-.012q-.7-.115-1.4-.236a.79.79,0,1,1,.268-1.556q.694.119,1.388.233a.791.791,0,0,1-.127,1.571Zm73.677-.584a.79.79,0,0,1-.131-1.569q.692-.117,1.386-.241a.79.79,0,1,1,.277,1.556q-.7.123-1.4.242A.839.839,0,0,1,1483.219,610.653Zm-78.317-.241a.753.753,0,0,1-.148-.014q-.7-.132-1.392-.27a.79.79,0,1,1,.306-1.551c.461.092.921.18,1.382.268a.79.79,0,0,1-.147,1.567Zm82.955-.61a.79.79,0,0,1-.151-1.565q.688-.136,1.381-.277a.79.79,0,0,1,.317,1.548q-.7.143-1.394.28A.8.8,0,0,1,1487.856,609.8Zm-87.572-.324a.833.833,0,0,1-.167-.017q-.694-.149-1.385-.3a.79.79,0,1,1,.342-1.543c.458.1.917.2,1.375.3a.79.79,0,0,1-.164,1.562Zm92.187-.646a.79.79,0,0,1-.172-1.561q.685-.154,1.373-.313a.79.79,0,0,1,.356,1.539q-.694.162-1.385.316A.8.8,0,0,1,1492.471,608.833Zm-96.781-.4a.739.739,0,0,1-.184-.022q-.69-.164-1.378-.336a.79.79,0,1,1,.379-1.533q.683.169,1.368.333a.79.79,0,0,1-.184,1.558Zm101.369-.687a.79.79,0,0,1-.192-1.556q.683-.171,1.366-.346a.789.789,0,1,1,.394,1.529c-.458.12-.918.235-1.376.35A.793.793,0,0,1,1497.059,607.747Zm-105.936-.467a.829.829,0,0,1-.2-.026q-.685-.182-1.369-.369a.79.79,0,0,1,.417-1.525c.453.124.906.246,1.359.366a.79.79,0,0,1-.2,1.554Zm110.5-.732a.789.789,0,0,1-.209-1.551q.677-.188,1.356-.38a.79.79,0,0,1,.432,1.52q-.685.195-1.368.382A.766.766,0,0,1,1501.619,606.548Zm-115.032-.532a.792.792,0,0,1-.222-.032q-.679-.2-1.359-.4a.79.79,0,1,1,.454-1.513q.672.2,1.347.4a.79.79,0,0,1-.22,1.549Zm119.563-.777a.791.791,0,0,1-.229-1.548c.45-.135.9-.272,1.347-.412a.791.791,0,0,1,.468,1.51q-.679.21-1.358.415A.8.8,0,0,1,1506.149,605.239Zm-124.067-.6a.783.783,0,0,1-.241-.037q-.675-.214-1.349-.435a.79.79,0,1,1,.49-1.5q.67.218,1.339.431a.79.79,0,0,1-.239,1.543Zm128.563-.821a.791.791,0,0,1-.246-1.542q.668-.218,1.338-.444a.79.79,0,1,1,.5,1.5q-.672.227-1.348.448A.768.768,0,0,1,1510.646,603.821Zm-133.033-.66a.815.815,0,0,1-.258-.043q-.668-.231-1.337-.468a.79.79,0,0,1,.526-1.49q.664.236,1.327.464a.79.79,0,0,1-.258,1.538Zm137.495-.866a.791.791,0,0,1-.265-1.535q.664-.236,1.327-.477a.79.79,0,0,1,.539,1.486q-.668.242-1.336.48A.778.778,0,0,1,1515.108,602.295Zm-141.927-.723a.772.772,0,0,1-.275-.05q-.664-.246-1.326-.5a.79.79,0,1,1,.562-1.476q.657.251,1.316.5a.79.79,0,0,1-.277,1.531Zm146.351-.909a.79.79,0,0,1-.284-1.528q.657-.253,1.314-.509a.79.79,0,1,1,.575,1.471q-.662.259-1.323.512A.785.785,0,0,1,1519.532,600.662Zm-150.744-.788a.77.77,0,0,1-.293-.056q-.659-.262-1.316-.527a.79.79,0,0,1,.591-1.466l1.31.526a.79.79,0,0,1-.292,1.523Zm155.127-.951a.79.79,0,0,1-.3-1.522q.651-.268,1.3-.54a.79.79,0,1,1,.611,1.457q-.655.274-1.311.545A.79.79,0,0,1,1523.914,598.922Zm-159.495-.821a.8.8,0,0,1-.3-.059q-.655-.27-1.308-.543a.79.79,0,1,1,.608-1.458q.651.272,1.3.54a.79.79,0,0,1-.3,1.52Zm163.841-1.03a.79.79,0,0,1-.318-1.513c.431-.19.86-.382,1.291-.575a.79.79,0,0,1,.647,1.441c-.432.2-.868.389-1.3.581A.8.8,0,0,1,1528.26,597.071Zm-168.188-.79a.779.779,0,0,1-.308-.063q-.653-.277-1.3-.556a.79.79,0,1,1,.621-1.453q.648.279,1.3.555a.79.79,0,0,1-.308,1.517Zm172.488-1.17a.791.791,0,0,1-.337-1.506c.427-.2.85-.4,1.275-.607a.791.791,0,0,1,.684,1.425q-.642.307-1.285.611A.782.782,0,0,1,1532.561,595.111Zm-176.819-.692a.784.784,0,0,1-.314-.066l-1.3-.565a.79.79,0,0,1,.633-1.448l1.3.565a.79.79,0,0,1-.316,1.515Zm181.064-1.378a.79.79,0,0,1-.356-1.5q.629-.318,1.257-.638a.79.79,0,0,1,.722,1.405q-.633.324-1.268.644A.782.782,0,0,1,1536.806,593.041Zm-185.38-.516a.813.813,0,0,1-.32-.066l-1.294-.574a.79.79,0,0,1,.643-1.444l1.291.572a.79.79,0,0,1-.32,1.512Zm189.565-1.663a.79.79,0,0,1-.375-1.486q.62-.333,1.238-.672a.79.79,0,0,1,.759,1.385q-.623.341-1.249.679A.788.788,0,0,1,1540.991,590.862Zm-193.871-.254a.8.8,0,0,1-.323-.068l-1.291-.579a.79.79,0,1,1,.647-1.441l1.29.578a.79.79,0,0,1-.323,1.51Zm-4.3-1.931a.789.789,0,0,1-.324-.071l-1.288-.581a.79.79,0,0,1,.65-1.441l1.288.582a.79.79,0,0,1-.326,1.51Zm202.293-.105a.79.79,0,0,1-.395-1.476c.408-.232.813-.468,1.218-.7a.79.79,0,0,1,.8,1.363q-.614.359-1.229.713A.79.79,0,0,1,1545.113,588.572Zm-206.589-1.835a.789.789,0,0,1-.324-.071l-1.288-.582a.79.79,0,1,1,.65-1.44l1.288.582a.79.79,0,0,1-.326,1.51Zm210.64-.568a.79.79,0,0,1-.414-1.464q.6-.367,1.2-.739a.79.79,0,0,1,.837,1.339q-.6.376-1.208.748A.794.794,0,0,1,1549.164,586.17ZM1334.228,584.8a.787.787,0,0,1-.324-.069l-1.29-.581a.79.79,0,1,1,.648-1.441l1.29.581a.79.79,0,0,1-.324,1.51Zm218.913-1.147a.79.79,0,0,1-.434-1.451q.588-.385,1.172-.775a.79.79,0,0,1,.878,1.314q-.59.393-1.185.783A.777.777,0,0,1,1553.141,583.651Zm-223.214-.784a.78.78,0,0,1-.323-.069l-1.29-.576a.79.79,0,1,1,.643-1.443l1.293.576a.79.79,0,0,1-.323,1.512Zm227.109-1.855a.79.79,0,0,1-.454-1.437q.575-.4,1.146-.81a.79.79,0,1,1,.918,1.285q-.575.413-1.157.819A.785.785,0,0,1,1557.037,581.012Zm-231.418-.059a.787.787,0,0,1-.318-.068l-1.293-.569a.79.79,0,0,1,.635-1.447l1.3.571a.79.79,0,0,1-.32,1.513Zm-4.318-1.891a.782.782,0,0,1-.314-.065l-1.3-.561a.79.79,0,0,1,.625-1.451l1.3.562a.79.79,0,0,1-.314,1.515Zm239.544-.807a.791.791,0,0,1-.475-1.422q.562-.422,1.118-.847a.79.79,0,0,1,.96,1.255q-.562.43-1.13.856A.787.787,0,0,1,1560.845,578.255ZM1316.968,577.2a.794.794,0,0,1-.307-.062l-1.3-.549a.79.79,0,0,1,.611-1.457c.437.183.87.366,1.306.551a.79.79,0,0,1-.308,1.517Zm-127.678-.255a.791.791,0,0,1-.418-1.463q.605-.374,1.213-.741a.79.79,0,1,1,.816,1.353q-.6.361-1.2.731A.785.785,0,0,1,1189.29,576.949Zm123.329-1.561a.79.79,0,0,1-.3-.059l-1.306-.535a.79.79,0,0,1,.6-1.464q.657.268,1.312.537a.79.79,0,0,1-.3,1.52Zm251.939-.016a.79.79,0,0,1-.5-1.406q.547-.439,1.087-.883a.79.79,0,1,1,1,1.221q-.547.45-1.1.895A.79.79,0,0,1,1564.558,575.373Zm-371.216-.82a.79.79,0,0,1-.388-1.479q.62-.35,1.242-.689a.79.79,0,1,1,.758,1.386q-.614.335-1.225.679A.788.788,0,0,1,1193.342,574.553Zm114.906-.931a.768.768,0,0,1-.291-.056q-.657-.259-1.313-.517a.79.79,0,0,1,.578-1.471q.659.259,1.317.52a.79.79,0,0,1-.291,1.525Zm259.919-1.258a.79.79,0,0,1-.517-1.388q.53-.458,1.053-.921a.79.79,0,1,1,1.046,1.185q-.53.469-1.066.932A.791.791,0,0,1,1568.166,572.364Zm-370.672-.032a.79.79,0,0,1-.359-1.495q.633-.324,1.271-.635a.789.789,0,1,1,.7,1.417q-.627.309-1.252.627A.782.782,0,0,1,1197.494,572.332Zm106.361-.419a.77.77,0,0,1-.281-.052q-.659-.251-1.32-.5a.79.79,0,1,1,.556-1.479q.664.249,1.326.5a.79.79,0,0,1-.281,1.529Zm-102.119-1.623a.79.79,0,0,1-.328-1.509q.648-.3,1.3-.581a.79.79,0,1,1,.636,1.447q-.64.281-1.278.572A.8.8,0,0,1,1201.736,570.29Zm97.7-.019a.805.805,0,0,1-.269-.048q-.662-.242-1.326-.477a.79.79,0,0,1,.53-1.489q.668.238,1.334.48a.79.79,0,0,1-.27,1.533Zm272.232-1.052a.79.79,0,0,1-.539-1.368q.515-.48,1.022-.964a.79.79,0,1,1,1.092,1.143q-.515.491-1.036.977A.792.792,0,0,1,1571.668,569.219Zm-276.676-.516a.755.755,0,0,1-.255-.043q-.668-.227-1.334-.453a.79.79,0,0,1,.5-1.5q.672.225,1.343.455a.79.79,0,0,1-.256,1.538Zm-88.928-.271a.79.79,0,0,1-.3-1.523q.659-.266,1.322-.525a.79.79,0,0,1,.574,1.473q-.653.253-1.3.517A.794.794,0,0,1,1206.064,568.432Zm84.456-1.212a.779.779,0,0,1-.241-.039c-.448-.143-.895-.285-1.343-.425a.79.79,0,1,1,.474-1.507q.677.212,1.35.428a.791.791,0,0,1-.241,1.544Zm-80.054-.46a.79.79,0,0,1-.265-1.535c.448-.159.895-.314,1.345-.467a.79.79,0,0,1,.509,1.5c-.441.15-.883.3-1.324.46A.765.765,0,0,1,1210.467,566.761Zm364.585-.823a.79.79,0,0,1-.562-1.346q.495-.5.983-1a.79.79,0,1,1,1.135,1.1c-.328.342-.661.68-1,1.017A.783.783,0,0,1,1575.052,565.938Zm-289.033-.109a.814.814,0,0,1-.225-.032c-.267-.079-.532-.159-.8-.236l-.553-.16a.79.79,0,1,1,.438-1.519l.559.163q.4.117.8.238a.789.789,0,0,1-.225,1.546Zm-71.08-.549a.79.79,0,0,1-.232-1.545c.453-.14.908-.277,1.362-.411a.79.79,0,1,1,.445,1.516c-.448.133-.9.267-1.343.4A.808.808,0,0,1,1214.938,565.279Zm66.542-.723a.748.748,0,0,1-.2-.027q-.681-.177-1.362-.349a.79.79,0,0,1,.385-1.533c.46.117.919.233,1.378.355a.791.791,0,0,1-.2,1.555Zm-62.011-.566a.79.79,0,0,1-.2-1.555q.69-.179,1.379-.352a.79.79,0,1,1,.382,1.533q-.681.169-1.359.347A.817.817,0,0,1,1219.469,563.989Zm57.43-.552a.8.8,0,0,1-.174-.019q-.685-.156-1.373-.3a.79.79,0,0,1,.331-1.545q.7.149,1.389.306a.79.79,0,0,1-.173,1.561Zm-52.848-.546a.79.79,0,0,1-.167-1.562q.7-.151,1.394-.294a.79.79,0,0,1,.317,1.548c-.46.094-.917.19-1.375.29A.748.748,0,0,1,1224.051,562.891Zm354.248-.37a.79.79,0,0,1-.584-1.322q.473-.519.94-1.043a.79.79,0,0,1,1.182,1.049q-.474.532-.954,1.058A.784.784,0,0,1,1578.3,562.521Zm-306.016-.039a.841.841,0,0,1-.147-.013c-.461-.088-.922-.172-1.384-.254a.79.79,0,0,1,.275-1.556q.7.125,1.4.257a.79.79,0,0,1-.146,1.566Zm-43.608-.5a.791.791,0,0,1-.134-1.569c.467-.081.935-.16,1.4-.235a.79.79,0,1,1,.252,1.559q-.694.112-1.385.232A.735.735,0,0,1,1228.675,561.986Zm38.96-.294a.838.838,0,0,1-.12-.009q-.7-.106-1.392-.2a.79.79,0,0,1,.22-1.565c.47.066.94.134,1.408.206a.79.79,0,0,1-.117,1.571Zm-34.3-.419a.79.79,0,0,1-.1-1.574q.7-.1,1.412-.179a.79.79,0,0,1,.189,1.569c-.465.056-.93.114-1.4.176A.833.833,0,0,1,1233.334,561.273Zm29.628-.2a.648.648,0,0,1-.091-.006c-.465-.053-.932-.1-1.4-.151a.79.79,0,0,1,.161-1.572q.709.074,1.415.154a.79.79,0,0,1-.088,1.575Zm-24.943-.323a.79.79,0,0,1-.072-1.577c.473-.043.947-.082,1.419-.121a.791.791,0,1,1,.124,1.577c-.467.036-.934.076-1.4.118A.616.616,0,0,1,1238.019,560.748Zm20.249-.125-.061,0q-.7-.054-1.4-.1a.79.79,0,0,1,.1-1.577c.474.03.947.065,1.421.1a.79.79,0,0,1-.06,1.578Zm-15.547-.208a.79.79,0,0,1-.04-1.579q.711-.037,1.424-.063a.79.79,0,1,1,.061,1.578q-.7.028-1.4.063Zm10.84-.063h-.03q-.7-.026-1.405-.046a.789.789,0,0,1-.768-.811.8.8,0,0,1,.812-.768q.711.019,1.422.046a.791.791,0,0,1-.03,1.581Zm-6.128-.084a.79.79,0,0,1-.009-1.581q.7-.007,1.412-.007a.8.8,0,0,1,.8.79.785.785,0,0,1-.784.79h-.011c-.465,0-.93,0-1.4.009Zm333.963-1.3a.791.791,0,0,1-.607-1.3q.447-.536.888-1.079a.79.79,0,0,1,1.226,1q-.445.551-.9,1.1A.791.791,0,0,1,1581.4,558.97Zm2.926-3.675a.778.778,0,0,1-.477-.161.79.79,0,0,1-.151-1.107q.422-.556.836-1.118a.79.79,0,0,1,1.272.937q-.421.573-.85,1.137A.791.791,0,0,1,1584.323,555.295Zm2.751-3.809a.79.79,0,0,1-.651-1.238q.4-.575.782-1.159a.79.79,0,1,1,1.316.875q-.393.592-.8,1.179A.788.788,0,0,1,1587.074,551.486Zm2.561-3.943a.79.79,0,0,1-.672-1.2q.365-.6.722-1.2a.79.79,0,1,1,1.359.806c-.241.408-.487.814-.735,1.219A.791.791,0,0,1,1589.635,547.543Zm2.359-4.071a.791.791,0,0,1-.693-1.169c.222-.409.443-.821.659-1.235a.791.791,0,0,1,1.4.734q-.331.631-.672,1.257A.792.792,0,0,1,1591.994,543.472Zm2.139-4.2a.789.789,0,0,1-.712-1.13q.3-.633.591-1.271a.79.79,0,0,1,1.438.656q-.3.651-.6,1.294A.793.793,0,0,1,1594.132,539.275Zm1.908-4.315a.809.809,0,0,1-.3-.058.792.792,0,0,1-.432-1.03q.266-.651.52-1.3a.79.79,0,1,1,1.473.574q-.259.666-.53,1.329A.789.789,0,0,1,1596.04,534.96Zm1.662-4.42a.792.792,0,0,1-.748-1.048q.229-.664.445-1.333a.79.79,0,1,1,1.5.487q-.221.681-.454,1.359A.79.79,0,0,1,1597.7,530.54Zm1.4-4.5a.779.779,0,0,1-.213-.03.788.788,0,0,1-.548-.973c.125-.45.246-.9.365-1.352a.79.79,0,1,1,1.529.4q-.179.692-.372,1.378A.792.792,0,0,1,1599.1,526.037Zm1.139-4.573a.879.879,0,0,1-.172-.019.791.791,0,0,1-.6-.941q.149-.687.288-1.372a.79.79,0,0,1,1.549.314c-.094.466-.192.93-.294,1.4A.793.793,0,0,1,1600.241,521.464Zm.885-4.629a.789.789,0,0,1-.781-.917q.112-.694.213-1.383a.79.79,0,0,1,1.564.226c-.068.47-.141.94-.218,1.411A.789.789,0,0,1,1601.126,516.835Zm.624-4.669a.772.772,0,0,1-.082,0,.791.791,0,0,1-.7-.869q.071-.7.134-1.394a.79.79,0,0,1,1.574.138c-.042.473-.087.945-.137,1.42A.79.79,0,0,1,1601.75,512.166Zm.356-4.7h-.036a.791.791,0,0,1-.754-.826c.022-.468.041-.934.053-1.4a.79.79,0,0,1,1.58.046c-.013.474-.032.95-.053,1.425A.791.791,0,0,1,1602.106,507.466Zm.082-4.711a.789.789,0,0,1-.79-.781q-.009-.7-.03-1.4a.79.79,0,0,1,1.58-.046c.014.474.025.948.03,1.425a.79.79,0,0,1-.78.8Zm-.2-4.707a.789.789,0,0,1-.787-.734q-.05-.7-.112-1.4a.791.791,0,0,1,1.575-.14c.042.473.079.948.112,1.422a.789.789,0,0,1-.732.845Zm-.47-4.685a.79.79,0,0,1-.783-.689c-.061-.464-.124-.925-.192-1.386a.79.79,0,0,1,1.562-.231c.069.47.135.941.2,1.414a.79.79,0,0,1-.682.885A.837.837,0,0,1,1601.522,493.363Zm-.739-4.652a.79.79,0,0,1-.775-.644c-.087-.46-.177-.917-.271-1.373a.79.79,0,1,1,1.548-.319c.1.465.187.932.275,1.4a.789.789,0,0,1-.63.922A.728.728,0,0,1,1600.783,488.711Zm-1-4.594a.79.79,0,0,1-.767-.6q-.166-.679-.344-1.355a.79.79,0,0,1,1.528-.4q.182.687.352,1.379a.79.79,0,0,1-.579.956A.779.779,0,0,1,1599.786,484.117Zm-1.245-4.535a.79.79,0,0,1-.756-.561q-.2-.67-.417-1.337a.79.79,0,0,1,1.5-.481q.218.679.425,1.36a.792.792,0,0,1-.757,1.019Zm-1.483-4.47a.789.789,0,0,1-.744-.523q-.238-.659-.486-1.317a.79.79,0,1,1,1.479-.556q.253.668.494,1.337a.791.791,0,0,1-.475,1.012A.8.8,0,0,1,1597.058,475.111Zm-1.706-4.4a.79.79,0,0,1-.729-.486q-.27-.648-.549-1.3a.79.79,0,0,1,1.45-.627c.19.438.375.876.558,1.314a.789.789,0,0,1-.729,1.094Zm-1.912-4.318a.791.791,0,0,1-.716-.454q-.3-.636-.608-1.27a.79.79,0,0,1,1.421-.692q.313.642.617,1.288a.79.79,0,0,1-.377,1.052A.8.8,0,0,1,1593.439,466.394Zm-2.106-4.233a.79.79,0,0,1-.7-.424q-.326-.623-.66-1.239a.79.79,0,0,1,1.391-.751q.339.627.669,1.257a.791.791,0,0,1-.7,1.157Zm-2.271-4.129a.792.792,0,0,1-.686-.4q-.35-.607-.709-1.213a.79.79,0,0,1,1.36-.8q.363.612.718,1.228a.791.791,0,0,1-.29,1.079A.78.78,0,0,1,1589.062,458.033Zm-2.431-4.04a.788.788,0,0,1-.67-.37q-.374-.594-.754-1.186a.79.79,0,1,1,1.33-.855c.256.4.51.8.762,1.2a.791.791,0,0,1-.249,1.09A.8.8,0,0,1,1586.631,453.993Zm-2.575-3.947a.786.786,0,0,1-.654-.347q-.4-.581-.794-1.16a.79.79,0,1,1,1.3-.9c.271.391.537.781.8,1.175a.791.791,0,0,1-.212,1.1A.782.782,0,0,1,1584.056,450.046Zm-2.707-3.859a.786.786,0,0,1-.64-.326q-.413-.568-.832-1.136a.79.79,0,1,1,1.27-.94q.424.573.842,1.147a.79.79,0,0,1-.64,1.254Zm-2.826-3.773a.787.787,0,0,1-.625-.307q-.43-.555-.866-1.11a.79.79,0,0,1,1.242-.977q.441.558.873,1.121a.789.789,0,0,1-.624,1.273Zm-2.934-3.689a.788.788,0,0,1-.613-.29q-.445-.545-.9-1.087a.79.79,0,1,1,1.215-1.01q.456.547.9,1.1a.79.79,0,0,1-.611,1.29Zm-3.041-3.617a.79.79,0,0,1-.6-.274q-.461-.534-.927-1.066a.791.791,0,0,1,1.189-1.042q.469.536.935,1.077a.79.79,0,0,1-.6,1.306Zm-3.133-3.542a.79.79,0,0,1-.586-.259q-.474-.525-.953-1.045a.79.79,0,1,1,1.164-1.069q.482.525.96,1.052a.79.79,0,0,1-.585,1.322ZM1566.2,428.1a.787.787,0,0,1-.573-.246q-.487-.512-.976-1.023a.79.79,0,1,1,1.14-1.094q.493.514.983,1.03a.79.79,0,0,1-.573,1.333Zm-3.286-3.394a.791.791,0,0,1-.562-.235q-.5-.5-1-1a.791.791,0,1,1,1.118-1.118q.5.5,1,1.009a.791.791,0,0,1-.562,1.346Zm-3.35-3.326a.789.789,0,0,1-.551-.223q-.506-.493-1.015-.983a.79.79,0,0,1,1.1-1.138q.512.493,1.02.989a.79.79,0,0,1-.552,1.356Zm-3.408-3.261a.788.788,0,0,1-.54-.213c-.343-.323-.686-.643-1.031-.964a.79.79,0,1,1,1.077-1.156q.519.482,1.035.968a.788.788,0,0,1-.541,1.365Zm-3.461-3.2a.783.783,0,0,1-.53-.206l-1.046-.945a.79.79,0,0,1,1.058-1.175c.352.317.7.633,1.051.951a.79.79,0,0,1-.532,1.375Zm-3.509-3.14a.786.786,0,0,1-.521-.2q-.528-.467-1.058-.93a.791.791,0,0,1,1.04-1.19l1.062.934a.79.79,0,0,1-.523,1.383Zm-3.549-3.087a.782.782,0,0,1-.514-.19q-.534-.458-1.069-.914a.79.79,0,1,1,1.023-1.2q.538.456,1.075.917a.791.791,0,0,1-.515,1.391Zm-3.588-3.035a.782.782,0,0,1-.506-.184l-1.085-.9a.79.79,0,1,1,1.007-1.216q.545.452,1.089.906a.79.79,0,0,1-.506,1.4Zm-3.637-3a.783.783,0,0,1-.5-.177q-.549-.447-1.1-.891a.79.79,0,1,1,.994-1.228q.551.445,1.1.893a.79.79,0,0,1-.5,1.4Zm-3.672-2.96a.788.788,0,0,1-.491-.171q-.553-.441-1.105-.879a.79.79,0,1,1,.981-1.238l1.108.881a.79.79,0,0,1-.493,1.408Zm-3.7-2.921a.781.781,0,0,1-.486-.169l-1.114-.868a.79.79,0,1,1,.97-1.248l1.117.87a.791.791,0,0,1-.487,1.414Zm-3.728-2.889a.779.779,0,0,1-.48-.163l-1.121-.859a.79.79,0,1,1,.958-1.255l1.125.86a.79.79,0,0,1-.483,1.417Zm-3.75-2.858a.786.786,0,0,1-.477-.16l-1.127-.85a.79.79,0,0,1,.95-1.262l1.131.852a.791.791,0,0,1-.477,1.421Zm-3.771-2.832a.787.787,0,0,1-.471-.157l-1.134-.845a.79.79,0,0,1,.944-1.268l1.136.846a.791.791,0,0,1-.474,1.424ZM1516,385.383a.788.788,0,0,1-.468-.154l-1.139-.84a.79.79,0,1,1,.938-1.271l1.138.84a.79.79,0,0,1-.47,1.425Z" transform="translate(-1188.498 -348.095)" fill="#fff"/></g><g transform="translate(170.295 169.805)"><path d="M1097.463,488.781s71.825-35.489,48.336-61.619-67.283-15.685-69.5,11.816S1127.381,460.027,1097.463,488.781Z" transform="translate(-1076.232 -412.113)" fill="url(#dj)"/><g transform="translate(12.493 21.317)"><path d="M1139.723,434.392h-31.7a.481.481,0,0,1,0-.963h31.7a.481.481,0,1,1,0,.963Z" transform="translate(-1088.725 -433.429)" fill="#fff"/><path d="M1098.612,434.392h-9.4a.481.481,0,1,1,0-.963h9.4a.481.481,0,1,1,0,.963Z" transform="translate(-1088.725 -433.429)" fill="#fff"/><path d="M1140.79,440.811h-11.9a.482.482,0,0,1,0-.964h11.9a.482.482,0,1,1,0,.964Z" transform="translate(-1088.725 -433.429)" fill="#fff"/><path d="M1111.423,440.811h-21.15a.482.482,0,0,1,0-.964h21.15a.482.482,0,1,1,0,.964Z" transform="translate(-1088.725 -433.429)" fill="#fff"/><path d="M1141.86,447.228h-31.641a.482.482,0,0,1,0-.964h31.641a.482.482,0,0,1,0,.964Z" transform="translate(-1088.725 -433.429)" fill="#fff"/><path d="M1102.3,447.228h-10.952a.482.482,0,1,1,0-.964H1102.3a.482.482,0,1,1,0,.964Z" transform="translate(-1088.725 -433.429)" fill="#fff"/></g></g><g transform="translate(281.414 22.536)" opacity="0.45"><g transform="translate(26.244)"><path d="M1254.253,281.19l-1.908-.435a1.621,1.621,0,0,1-1.137-.974,17.235,17.235,0,0,0-1.894-3.457,1.624,1.624,0,0,1-.209-1.484l.664-1.843a1.937,1.937,0,0,0-.61-2.163l-1.921-1.546a1.936,1.936,0,0,0-2.244-.13l-1.659,1.043a1.617,1.617,0,0,1-1.493.114,17.3,17.3,0,0,0-3.784-1.108,1.621,1.621,0,0,1-1.195-.9l-.833-1.77a1.938,1.938,0,0,0-1.96-1.1l-2.451.267a1.935,1.935,0,0,0-1.679,1.494l-.435,1.908a1.617,1.617,0,0,1-.974,1.137,17.271,17.271,0,0,0-3.457,1.894,1.624,1.624,0,0,1-1.484.209l-1.843-.664a1.936,1.936,0,0,0-2.163.608l-1.546,1.922a1.934,1.934,0,0,0-.13,2.242l1.043,1.659a1.619,1.619,0,0,1,.114,1.494,17.312,17.312,0,0,0-1.108,3.783,1.616,1.616,0,0,1-.9,1.195l-1.771.834a1.934,1.934,0,0,0-1.1,1.96l.265,2.451a1.935,1.935,0,0,0,1.494,1.679l1.908.435a1.619,1.619,0,0,1,1.137.973,17.234,17.234,0,0,0,1.894,3.459,1.621,1.621,0,0,1,.209,1.483l-.664,1.845a1.937,1.937,0,0,0,.61,2.163l1.921,1.545a1.934,1.934,0,0,0,2.244.131l1.659-1.043a1.617,1.617,0,0,1,1.493-.114,17.307,17.307,0,0,0,3.784,1.108,1.619,1.619,0,0,1,1.195.9l.833,1.771a1.934,1.934,0,0,0,1.96,1.1l2.451-.265a1.935,1.935,0,0,0,1.679-1.494l.435-1.908a1.613,1.613,0,0,1,.973-1.137,17.319,17.319,0,0,0,3.459-1.894,1.621,1.621,0,0,1,1.483-.209l1.845.663a1.934,1.934,0,0,0,2.163-.608l1.546-1.921a1.936,1.936,0,0,0,.13-2.244l-1.043-1.659a1.62,1.62,0,0,1-.114-1.494,17.272,17.272,0,0,0,1.108-3.783,1.619,1.619,0,0,1,.9-1.195l1.771-.833a1.936,1.936,0,0,0,1.1-1.96l-.265-2.451A1.935,1.935,0,0,0,1254.253,281.19Zm-16.178,19.193a14.348,14.348,0,1,1,11.059-17.013A14.346,14.346,0,0,1,1238.076,300.384Zm6.177-14.207a9.3,9.3,0,1,1-9.3-9.3A9.3,9.3,0,0,1,1244.252,286.177Z" transform="translate(-1213.595 -264.844)" fill="#fff"/><path d="M1235.918,307.853a2.516,2.516,0,0,1-2.274-1.444l-.834-1.771a1.039,1.039,0,0,0-.768-.576,17.965,17.965,0,0,1-3.911-1.146,1.039,1.039,0,0,0-.961.071l-1.659,1.043a2.513,2.513,0,0,1-2.914-.17l-1.921-1.545a2.514,2.514,0,0,1-.79-2.81l.663-1.845a1.044,1.044,0,0,0-.137-.954,17.83,17.83,0,0,1-1.957-3.573,1.044,1.044,0,0,0-.729-.628l-1.908-.434a2.516,2.516,0,0,1-1.941-2.18l-.267-2.453a2.515,2.515,0,0,1,1.43-2.545l1.77-.834a1.04,1.04,0,0,0,.578-.77,17.965,17.965,0,0,1,1.146-3.91,1.045,1.045,0,0,0-.071-.961l-1.043-1.659a2.513,2.513,0,0,1,.17-2.914l1.545-1.921a2.514,2.514,0,0,1,2.81-.79l1.843.663a1.047,1.047,0,0,0,.954-.137,17.875,17.875,0,0,1,3.574-1.957,1.044,1.044,0,0,0,.628-.729l.434-1.908a2.516,2.516,0,0,1,2.18-1.941l2.451-.267a2.519,2.519,0,0,1,2.547,1.43l.834,1.77a1.037,1.037,0,0,0,.77.578,17.917,17.917,0,0,1,3.91,1.146,1.044,1.044,0,0,0,.961-.071l1.659-1.043a2.516,2.516,0,0,1,2.914.169l1.921,1.546a2.514,2.514,0,0,1,.79,2.81l-.663,1.843a1.047,1.047,0,0,0,.137.956,17.883,17.883,0,0,1,1.957,3.573,1.039,1.039,0,0,0,.729.627l1.908.435a2.516,2.516,0,0,1,1.941,2.18l.267,2.451a2.517,2.517,0,0,1-1.43,2.547l-1.77.834a1.037,1.037,0,0,0-.578.768,17.932,17.932,0,0,1-1.146,3.91,1.044,1.044,0,0,0,.071.961l1.043,1.659a2.516,2.516,0,0,1-.17,2.915l-1.545,1.921a2.516,2.516,0,0,1-2.81.79l-1.843-.663a1.043,1.043,0,0,0-.955.137,17.97,17.97,0,0,1-3.573,1.957,1.044,1.044,0,0,0-.628.729l-.434,1.908a2.516,2.516,0,0,1-2.182,1.941l-2.45.267C1236.1,307.847,1236.009,307.853,1235.918,307.853Zm-8.2-6.18a2.221,2.221,0,0,1,.866.176,16.736,16.736,0,0,0,3.656,1.071,2.2,2.2,0,0,1,1.62,1.225l.833,1.771a1.359,1.359,0,0,0,1.375.771l2.451-.265a1.362,1.362,0,0,0,1.177-1.048l.434-1.91a2.2,2.2,0,0,1,1.32-1.543,16.7,16.7,0,0,0,3.342-1.83,2.2,2.2,0,0,1,2.013-.281l1.844.663a1.355,1.355,0,0,0,1.516-.425l1.546-1.922a1.358,1.358,0,0,0,.091-1.572l-1.043-1.659a2.2,2.2,0,0,1-.157-2.028,16.678,16.678,0,0,0,1.071-3.656,2.2,2.2,0,0,1,1.225-1.62l1.771-.834a1.356,1.356,0,0,0,.771-1.373l-.265-2.451a1.36,1.36,0,0,0-1.048-1.177l-1.908-.434a2.2,2.2,0,0,1-1.545-1.32,16.7,16.7,0,0,0-1.83-3.342,2.208,2.208,0,0,1-.281-2.015l.664-1.843a1.356,1.356,0,0,0-.427-1.516l-1.921-1.546a1.357,1.357,0,0,0-1.574-.091l-1.659,1.043a2.2,2.2,0,0,1-2.026.157,16.736,16.736,0,0,0-3.657-1.071,2.2,2.2,0,0,1-1.62-1.225l-.834-1.773a1.36,1.36,0,0,0-1.373-.77l-2.451.265a1.36,1.36,0,0,0-1.177,1.048l-.434,1.908a2.206,2.206,0,0,1-1.32,1.545,16.666,16.666,0,0,0-3.342,1.83,2.2,2.2,0,0,1-2.013.28l-1.845-.663a1.358,1.358,0,0,0-1.516.427l-1.546,1.921a1.36,1.36,0,0,0-.091,1.574l1.043,1.659a2.2,2.2,0,0,1,.157,2.026,16.684,16.684,0,0,0-1.071,3.658,2.2,2.2,0,0,1-1.225,1.62l-1.771.833a1.36,1.36,0,0,0-.771,1.375l.265,2.451a1.359,1.359,0,0,0,1.048,1.176l1.909.435a2.2,2.2,0,0,1,1.543,1.32,16.7,16.7,0,0,0,1.83,3.342,2.2,2.2,0,0,1,.281,2.013l-.664,1.845a1.357,1.357,0,0,0,.427,1.516l1.921,1.545a1.36,1.36,0,0,0,1.574.092l1.659-1.043A2.179,2.179,0,0,1,1227.715,301.673Zm7.381-.4a14.948,14.948,0,1,1,3.1-.327A14.953,14.953,0,0,1,1235.1,301.277Zm.03-28.7a13.915,13.915,0,0,0-2.884.3,13.769,13.769,0,1,0,5.713,26.939h0a13.772,13.772,0,0,0-2.829-27.243Zm-.176,23.483a9.88,9.88,0,1,1,9.879-9.88A9.891,9.891,0,0,1,1234.951,296.057Zm0-18.6a8.723,8.723,0,1,0,8.722,8.723A8.733,8.733,0,0,0,1234.951,277.454Z" transform="translate(-1213.595 -264.844)" fill="#fff"/></g><g transform="translate(41.585 39.874)"><path d="M1258.621,316.748l-1.386-.316a1.181,1.181,0,0,1-.826-.708,12.491,12.491,0,0,0-1.375-2.51,1.18,1.18,0,0,1-.151-1.078l.481-1.339a1.407,1.407,0,0,0-.441-1.572l-1.395-1.121a1.405,1.405,0,0,0-1.63-.1l-1.2.758a1.177,1.177,0,0,1-1.085.082,12.609,12.609,0,0,0-2.747-.8,1.175,1.175,0,0,1-.868-.656l-.607-1.285a1.405,1.405,0,0,0-1.422-.8l-1.781.193a1.408,1.408,0,0,0-1.219,1.085l-.316,1.386a1.171,1.171,0,0,1-.706.824,12.549,12.549,0,0,0-2.512,1.376,1.179,1.179,0,0,1-1.078.151l-1.339-.481a1.405,1.405,0,0,0-1.571.441l-1.123,1.4a1.4,1.4,0,0,0-.094,1.63l.756,1.2a1.177,1.177,0,0,1,.084,1.085,12.527,12.527,0,0,0-.806,2.747,1.173,1.173,0,0,1-.654.868l-1.286.605a1.408,1.408,0,0,0-.8,1.424l.193,1.78a1.406,1.406,0,0,0,1.085,1.219l1.386.316a1.181,1.181,0,0,1,.826.708,12.608,12.608,0,0,0,1.375,2.512,1.173,1.173,0,0,1,.151,1.077l-.481,1.339a1.406,1.406,0,0,0,.443,1.572l1.4,1.123a1.405,1.405,0,0,0,1.628.094l1.2-.757a1.173,1.173,0,0,1,1.085-.084,12.519,12.519,0,0,0,2.748.806,1.173,1.173,0,0,1,.868.654l.605,1.285a1.4,1.4,0,0,0,1.424.8l1.78-.193a1.4,1.4,0,0,0,1.219-1.085l.316-1.385a1.172,1.172,0,0,1,.708-.826,12.6,12.6,0,0,0,2.51-1.375,1.176,1.176,0,0,1,1.078-.153l1.339.483a1.4,1.4,0,0,0,1.571-.442l1.123-1.4a1.407,1.407,0,0,0,.1-1.63l-.758-1.2a1.178,1.178,0,0,1-.083-1.084,12.568,12.568,0,0,0,.806-2.748,1.175,1.175,0,0,1,.654-.868l1.287-.605a1.407,1.407,0,0,0,.8-1.424l-.193-1.78A1.4,1.4,0,0,0,1258.621,316.748Zm-11.748,13.939a10.42,10.42,0,1,1,8.031-12.355A10.42,10.42,0,0,1,1246.873,330.686Zm5.3-10.627a7.459,7.459,0,1,1-7.459-7.459A7.46,7.46,0,0,1,1252.171,320.059Z" transform="translate(-1228.936 -304.718)" fill="#fff"/><path d="M1245.307,336.269a1.985,1.985,0,0,1-1.8-1.14l-.605-1.285a.6.6,0,0,0-.444-.331,13.188,13.188,0,0,1-2.874-.842.6.6,0,0,0-.552.039l-1.2.758a1.984,1.984,0,0,1-2.3-.133l-1.4-1.123a1.988,1.988,0,0,1-.624-2.219l.481-1.339a.6.6,0,0,0-.079-.546,13.188,13.188,0,0,1-1.438-2.627.6.6,0,0,0-.418-.362l-1.386-.316a1.986,1.986,0,0,1-1.532-1.721l-.193-1.781a1.987,1.987,0,0,1,1.127-2.009l1.287-.605a.606.606,0,0,0,.331-.442,13.088,13.088,0,0,1,.842-2.874.6.6,0,0,0-.04-.552l-.757-1.2a1.986,1.986,0,0,1,.133-2.3l1.123-1.4a1.985,1.985,0,0,1,2.218-.623l1.339.481a.606.606,0,0,0,.549-.079,13.171,13.171,0,0,1,2.626-1.44.6.6,0,0,0,.362-.418l.316-1.385a1.982,1.982,0,0,1,1.721-1.532l1.78-.193a1.98,1.98,0,0,1,2.009,1.127l.607,1.287a.6.6,0,0,0,.443.33,13.17,13.17,0,0,1,2.874.842.6.6,0,0,0,.552-.039l1.2-.758a1.987,1.987,0,0,1,2.3.134l1.4,1.121a1.986,1.986,0,0,1,.624,2.219l-.481,1.339a.6.6,0,0,0,.079.548,13.145,13.145,0,0,1,1.438,2.627.6.6,0,0,0,.418.36l1.386.316a1.986,1.986,0,0,1,1.532,1.721l.193,1.781a1.985,1.985,0,0,1-1.127,2.009l-1.287.605a.6.6,0,0,0-.33.442,13.133,13.133,0,0,1-.843,2.875.6.6,0,0,0,.04.552l.758,1.2a1.989,1.989,0,0,1-.134,2.3l-1.123,1.4a1.98,1.98,0,0,1-2.218.623l-1.339-.481a.6.6,0,0,0-.548.079,13.153,13.153,0,0,1-2.627,1.44.6.6,0,0,0-.362.418l-.316,1.386a1.984,1.984,0,0,1-1.721,1.532l-1.78.193C1245.448,336.265,1245.378,336.269,1245.307,336.269Zm-5.958-4.8a1.767,1.767,0,0,1,.689.14,12.039,12.039,0,0,0,2.621.768,1.757,1.757,0,0,1,1.293.979l.605,1.285a.833.833,0,0,0,.839.47l1.78-.193a.825.825,0,0,0,.716-.638l.317-1.385a1.756,1.756,0,0,1,1.052-1.234,11.974,11.974,0,0,0,2.4-1.311,1.753,1.753,0,0,1,1.608-.223l1.339.481a.827.827,0,0,0,.924-.259l1.123-1.4a.826.826,0,0,0,.056-.958l-.758-1.2a1.759,1.759,0,0,1-.127-1.617,11.921,11.921,0,0,0,.768-2.621,1.756,1.756,0,0,1,.979-1.293l1.287-.607a.827.827,0,0,0,.47-.837l-.193-1.78a.828.828,0,0,0-.638-.716h0l-1.386-.317a1.748,1.748,0,0,1-1.232-1.053,12.1,12.1,0,0,0-1.313-2.4,1.754,1.754,0,0,1-.224-1.607l.481-1.339a.828.828,0,0,0-.259-.925l-1.4-1.121a.828.828,0,0,0-.958-.056l-1.2.758a1.753,1.753,0,0,1-1.618.125,12.072,12.072,0,0,0-2.621-.768,1.756,1.756,0,0,1-1.293-.977l-.605-1.287a.833.833,0,0,0-.837-.47l-1.78.193a.825.825,0,0,0-.718.638l-.316,1.386a1.758,1.758,0,0,1-1.053,1.232,11.947,11.947,0,0,0-2.4,1.313,1.761,1.761,0,0,1-1.608.222l-1.339-.481a.828.828,0,0,0-.924.261l-1.123,1.4a.826.826,0,0,0-.055.958l.757,1.2a1.758,1.758,0,0,1,.127,1.618,11.977,11.977,0,0,0-.768,2.62,1.757,1.757,0,0,1-.979,1.293l-1.285.607a.824.824,0,0,0-.47.837l.193,1.78a.828.828,0,0,0,.637.718l1.386.316a1.76,1.76,0,0,1,1.234,1.053,11.986,11.986,0,0,0,1.311,2.4,1.754,1.754,0,0,1,.223,1.607l-.481,1.339a.829.829,0,0,0,.259.925l1.4,1.123a.828.828,0,0,0,.96.055l1.2-.757A1.741,1.741,0,0,1,1239.349,331.465Zm5.339.03a11.024,11.024,0,1,1,2.3-.242h0A11.077,11.077,0,0,1,1244.689,331.495Zm.025-20.843a9.841,9.841,0,1,0,2.039,19.468h0a9.841,9.841,0,0,0-2.039-19.468Zm0,17.445a8.038,8.038,0,1,1,8.037-8.037A8.047,8.047,0,0,1,1244.712,328.1Zm0-14.919a6.881,6.881,0,1,0,6.88,6.881A6.889,6.889,0,0,0,1244.712,313.178Z" transform="translate(-1228.936 -304.718)" fill="#fff"/></g><g transform="translate(0 33.847)"><path d="M1224.911,325.929l-1.19-1.424a1.53,1.53,0,0,1-.3-1.386,16.391,16.391,0,0,0,.553-3.7,1.535,1.535,0,0,1,.695-1.239l1.558-1.012a1.835,1.835,0,0,0,.781-1.982l-.563-2.268a1.835,1.835,0,0,0-1.618-1.385l-1.851-.164a1.535,1.535,0,0,1-1.193-.771,16.436,16.436,0,0,0-2.219-3.006,1.53,1.53,0,0,1-.385-1.365l.386-1.816a1.836,1.836,0,0,0-.849-1.954l-2-1.2a1.837,1.837,0,0,0-2.124.164l-1.422,1.192a1.539,1.539,0,0,1-1.386.3,16.408,16.408,0,0,0-3.7-.555,1.538,1.538,0,0,1-1.239-.693l-1.012-1.558a1.834,1.834,0,0,0-1.981-.783l-2.268.563a1.835,1.835,0,0,0-1.385,1.62l-.164,1.849a1.536,1.536,0,0,1-.771,1.195,16.368,16.368,0,0,0-3.006,2.219,1.539,1.539,0,0,1-1.366.385l-1.814-.386a1.835,1.835,0,0,0-1.954.847l-1.2,2a1.833,1.833,0,0,0,.164,2.124l1.192,1.422a1.536,1.536,0,0,1,.3,1.388,16.4,16.4,0,0,0-.553,3.7,1.534,1.534,0,0,1-.693,1.239l-1.559,1.012a1.836,1.836,0,0,0-.781,1.982l.563,2.268a1.834,1.834,0,0,0,1.618,1.386l1.85.163a1.537,1.537,0,0,1,1.193.771,16.273,16.273,0,0,0,2.221,3.006,1.539,1.539,0,0,1,.385,1.366l-.388,1.814a1.839,1.839,0,0,0,.849,1.956l2,1.2a1.835,1.835,0,0,0,2.124-.166l1.422-1.19a1.534,1.534,0,0,1,1.386-.3,16.327,16.327,0,0,0,3.7.553,1.533,1.533,0,0,1,1.239.695l1.012,1.558a1.835,1.835,0,0,0,1.981.783l2.268-.565a1.835,1.835,0,0,0,1.385-1.618l.164-1.85a1.539,1.539,0,0,1,.771-1.193,16.44,16.44,0,0,0,3.006-2.219,1.531,1.531,0,0,1,1.366-.385l1.814.386a1.833,1.833,0,0,0,1.954-.849l1.206-2A1.835,1.835,0,0,0,1224.911,325.929Zm-23.219,5.208a13.6,13.6,0,1,1,18.1-6.5A13.6,13.6,0,0,1,1201.692,331.137Z" transform="translate(-1187.351 -298.69)" fill="#fff"/><path d="M1210.7,338.982a2.412,2.412,0,0,1-2.025-1.1l-1.012-1.558a.956.956,0,0,0-.774-.429,16.961,16.961,0,0,1-3.826-.574.959.959,0,0,0-.865.184l-1.422,1.19a2.415,2.415,0,0,1-2.794.218l-2-1.206a2.411,2.411,0,0,1-1.115-2.57l.386-1.816a.964.964,0,0,0-.242-.85,17.026,17.026,0,0,1-2.3-3.111.957.957,0,0,0-.742-.484l-1.85-.163a2.419,2.419,0,0,1-2.13-1.823l-.563-2.268a2.416,2.416,0,0,1,1.029-2.607l1.558-1.01a.966.966,0,0,0,.431-.775,16.983,16.983,0,0,1,.574-3.826.959.959,0,0,0-.184-.865l-1.192-1.422a2.415,2.415,0,0,1-.216-2.794l1.2-2a2.412,2.412,0,0,1,2.569-1.115l1.816.386a.953.953,0,0,0,.85-.242,17.017,17.017,0,0,1,3.113-2.3.957.957,0,0,0,.483-.742l.164-1.85a2.414,2.414,0,0,1,1.822-2.129l2.268-.565a2.417,2.417,0,0,1,2.607,1.029l1.012,1.558a.958.958,0,0,0,.774.431,17,17,0,0,1,3.826.574.959.959,0,0,0,.865-.184l1.424-1.192a2.415,2.415,0,0,1,2.793-.216l2,1.2a2.416,2.416,0,0,1,1.117,2.571l-.388,1.814a.962.962,0,0,0,.242.85,16.951,16.951,0,0,1,2.3,3.113.959.959,0,0,0,.742.483l1.85.164a2.415,2.415,0,0,1,2.13,1.822l.563,2.27a2.413,2.413,0,0,1-1.029,2.606l-1.558,1.012a.962.962,0,0,0-.431.775,16.981,16.981,0,0,1-.572,3.825.961.961,0,0,0,.183.866l1.192,1.422a2.417,2.417,0,0,1,.218,2.794l-1.206,2a2.413,2.413,0,0,1-2.569,1.117l-1.816-.386a.955.955,0,0,0-.85.242,16.98,16.98,0,0,1-3.113,2.3.961.961,0,0,0-.483.744l-.164,1.85a2.414,2.414,0,0,1-1.822,2.129l-2.268.563A2.366,2.366,0,0,1,1210.7,338.982Zm-7.892-4.854a2.171,2.171,0,0,1,.556.073,15.819,15.819,0,0,0,3.565.535,2.119,2.119,0,0,1,1.7.957l1.012,1.558a1.252,1.252,0,0,0,1.356.536l2.268-.565a1.252,1.252,0,0,0,.948-1.107l.164-1.85a2.118,2.118,0,0,1,1.059-1.644,15.785,15.785,0,0,0,2.9-2.142,2.119,2.119,0,0,1,1.881-.527l1.816.386a1.256,1.256,0,0,0,1.337-.581l1.206-2a1.26,1.26,0,0,0-.114-1.456l-1.19-1.422a2.115,2.115,0,0,1-.415-1.91,15.834,15.834,0,0,0,.535-3.564,2.121,2.121,0,0,1,.957-1.706l1.558-1.01a1.26,1.26,0,0,0,.536-1.358l-.565-2.268a1.255,1.255,0,0,0-1.108-.948l-1.85-.164a2.115,2.115,0,0,1-1.643-1.059,15.818,15.818,0,0,0-2.142-2.9,2.117,2.117,0,0,1-.527-1.881l.386-1.814a1.26,1.26,0,0,0-.581-1.339l-2-1.2a1.257,1.257,0,0,0-1.454.112l-1.422,1.192a2.12,2.12,0,0,1-1.909.414,15.774,15.774,0,0,0-3.565-.533,2.12,2.12,0,0,1-1.7-.958l-1.012-1.558a1.252,1.252,0,0,0-1.356-.535l-2.268.563a1.258,1.258,0,0,0-.948,1.108l-.164,1.85a2.12,2.12,0,0,1-1.059,1.644,15.883,15.883,0,0,0-2.9,2.14,2.112,2.112,0,0,1-1.881.527l-1.816-.386a1.257,1.257,0,0,0-1.337.581l-1.2,2a1.255,1.255,0,0,0,.112,1.454l1.192,1.424a2.116,2.116,0,0,1,.414,1.908,15.847,15.847,0,0,0-.535,3.565,2.115,2.115,0,0,1-.957,1.7l-1.558,1.012a1.256,1.256,0,0,0-.535,1.358l.563,2.267a1.258,1.258,0,0,0,1.108.95l1.85.163a2.119,2.119,0,0,1,1.643,1.059,15.854,15.854,0,0,0,2.141,2.9,2.12,2.12,0,0,1,.527,1.882l-.386,1.814a1.257,1.257,0,0,0,.581,1.337l2,1.206a1.255,1.255,0,0,0,1.454-.114l1.422-1.19A2.1,2.1,0,0,1,1202.807,334.128Zm4.666-1.113a14.093,14.093,0,0,1-6.028-1.355h0a14.182,14.182,0,1,1,6.028,1.355Zm-5.534-2.4a13.023,13.023,0,1,0-6.221-17.335,13.037,13.037,0,0,0,6.221,17.335Z" transform="translate(-1187.351 -298.69)" fill="#fff"/></g></g></svg>