<svg xmlns="http://www.w3.org/2000/svg" width="331" height="309" viewBox="0 0 331 309">
  <g id="img_contact" transform="translate(-188.846 -201.637)">
    <g id="Group_92" data-name="Group 92">
      <g id="Group_91" data-name="Group 91">
        <ellipse id="Ellipse_8" data-name="Ellipse 8" cx="72.381" cy="72.398" rx="72.381" ry="72.398" transform="translate(243.102 202.077)" fill="#16c0ff"/>
        <path id="Path_112" data-name="Path 112" d="M365.741,326.614a.692.692,0,0,1-.488-1.181A71.7,71.7,0,1,0,263.868,224.024a.692.692,0,1,1-.978-.978A73.081,73.081,0,0,1,366.231,326.41.69.69,0,0,1,365.741,326.614Z" fill="#243762"/>
        <ellipse id="Ellipse_9" data-name="Ellipse 9" cx="55.08" cy="55.093" rx="55.08" ry="55.093" transform="translate(260.403 219.383)" fill="#fff"/>
        <path id="Path_113" data-name="Path 113" d="M315.482,330.261a55.785,55.785,0,0,1,0-111.57.692.692,0,0,1,0,1.383,54.4,54.4,0,0,0,0,108.8.692.692,0,0,1,0,1.383Z" fill="#243762"/>
        <path id="Path_114" data-name="Path 114" d="M329.752,285.005H314.769a5.581,5.581,0,0,1-5.574-5.576V258.651a4.841,4.841,0,1,1,9.682,0v16.67h10.876a4.842,4.842,0,0,1,0,9.684Z" fill="#243762"/>
      </g>
    </g>
    <g id="Group_97" data-name="Group 97">
      <path id="Path_115" data-name="Path 115" d="M203.107,299.623l77.972,77.989a39.049,39.049,0,0,0,55.233,0l9.323-9.323a9.015,9.015,0,0,0,0-12.749l-31.817-31.826a9.013,9.013,0,0,0-12.746,0l-15.909,15.913a3.185,3.185,0,0,1-4.506,0l-38.585-38.594a3.145,3.145,0,0,1,0-4.448l15.688-15.692a9.015,9.015,0,0,0,0-12.749L225.08,235.458a9.012,9.012,0,0,0-12.634-.111l-8.852,8.551A39.072,39.072,0,0,0,203.107,299.623Z" fill="#243762"/>
      <g id="Group_93" data-name="Group 93">
        <path id="Path_116" data-name="Path 116" d="M205.548,245.47l43.813,43.824,1.5-1.5,6.9-6.9a9.015,9.015,0,0,0,0-12.749L225.08,235.458a9.012,9.012,0,0,0-12.634-.111l-8.852,8.551Z" fill="#ecf1f7"/>
        <path id="Path_117" data-name="Path 117" d="M249.361,290.271l-44.275-44.284-2.538-2.039,9.418-9.1a9.751,9.751,0,0,1,13.6.118l32.677,32.686a9.72,9.72,0,0,1,0,13.728Zm-44.723-46.419,1.4,1.13,43.324,43.332,7.908-7.909a8.323,8.323,0,0,0,0-11.772l-32.677-32.686a8.359,8.359,0,0,0-11.666-.1Z" fill="#243762"/>
      </g>
      <g id="Group_94" data-name="Group 94">
        <path id="Path_118" data-name="Path 118" d="M294.675,333.116l43.812,43.822,1.5-1.5,6.9-6.9a9.015,9.015,0,0,0,0-12.749L314.207,323.1a9.011,9.011,0,0,0-12.634-.111l-8.854,8.551Z" fill="#ecf1f7"/>
        <path id="Path_119" data-name="Path 119" d="M338.487,377.916l-44.275-44.286-2.537-2.038,9.418-9.1a9.752,9.752,0,0,1,13.6.119L347.374,355.3a9.706,9.706,0,0,1,0,13.726ZM293.765,331.5l1.4,1.13,43.324,43.334,7.909-7.911a8.323,8.323,0,0,0,0-11.769l-32.679-32.688a8.36,8.36,0,0,0-11.664-.1Z" fill="#243762"/>
      </g>
      <g id="Group_95" data-name="Group 95">
        <line id="Line_9" data-name="Line 9" x2="26.696" y2="26.702" transform="translate(208.905 240.304)" fill="#ecf1f7"/>
        <path id="Path_120" data-name="Path 120" d="M235.6,267.7a.69.69,0,0,1-.49-.2l-26.7-26.7a.692.692,0,0,1,.978-.978l26.7,26.7a.692.692,0,0,1-.488,1.182Z" fill="#243762"/>
      </g>
      <g id="Group_96" data-name="Group 96">
        <line id="Line_10" data-name="Line 10" x2="26.696" y2="26.702" transform="translate(315.093 346.517)" fill="#ecf1f7"/>
        <path id="Path_121" data-name="Path 121" d="M341.789,373.911a.687.687,0,0,1-.488-.2l-26.7-26.7a.692.692,0,0,1,.978-.978l26.7,26.7a.692.692,0,0,1-.49,1.182Z" fill="#243762"/>
      </g>
    </g>
    <g id="Group_100" data-name="Group 100">
      <path id="Path_122" data-name="Path 122" d="M458.936,510.407,356.723,495.285a21.159,21.159,0,0,1-17.832-24.029l36.658-247.9a21.156,21.156,0,0,1,24.023-17.836l102.212,15.122a21.159,21.159,0,0,1,17.832,24.029l-36.658,247.9A21.155,21.155,0,0,1,458.936,510.407Z" fill="#06658d"/>
      <rect id="Rectangle_6" data-name="Rectangle 6" width="236.643" height="128.284" transform="matrix(0.146, -0.989, 0.989, 0.146, 348.916, 462.766)" fill="#ecf1f7"/>
      <rect id="Rectangle_7" data-name="Rectangle 7" width="17.757" height="128.284" transform="matrix(0.146, -0.989, 0.989, 0.146, 380.936, 246.234)" fill="#16c0ff"/>
      <path id="Path_123" data-name="Path 123" d="M410.224,494.972a8.286,8.286,0,1,1,8.188-7.074A8.265,8.265,0,0,1,410.224,494.972Zm-.022-15.188a6.921,6.921,0,1,0,1.026.076A6.954,6.954,0,0,0,410.2,479.784Z" fill="#ecf1f7"/>
      <path id="Path_124" data-name="Path 124" d="M428.562,226.431a2.693,2.693,0,0,1-.391-.029,2.664,2.664,0,0,1-1.2-4.774,2.664,2.664,0,0,1,4.221,2.529h0A2.668,2.668,0,0,1,428.562,226.431Zm-.006-3.944a1.28,1.28,0,1,0,1.27,1.469h0a1.281,1.281,0,0,0-1.27-1.469Z" fill="#ecf1f7"/>
      <path id="Path_125" data-name="Path 125" d="M469.783,232.529a2.732,2.732,0,0,1-.4-.029l-32.376-4.79a2.664,2.664,0,1,1,.779-5.271l32.376,4.79a2.664,2.664,0,0,1-.383,5.3ZM437.4,223.794a1.281,1.281,0,0,0-.187,2.548l32.376,4.79a1.281,1.281,0,0,0,.375-2.535l-32.376-4.79A1.451,1.451,0,0,0,437.4,223.794Z" fill="#ecf1f7"/>
      <path id="Path_126" data-name="Path 126" d="M476.343,409.914l-88.525-13.1a2.637,2.637,0,0,0-3,2.223l-3.4,22.973a2.64,2.64,0,0,0,2.224,3l75.685,11.2,7.8,10.757,1.39-9.4,3.653.541a2.638,2.638,0,0,0,3-2.225l3.4-22.972A2.639,2.639,0,0,0,476.343,409.914Z" fill="#c5d9ff"/>
      <path id="Path_127" data-name="Path 127" d="M459.334,436.9a.623.623,0,0,1-.1-.008l-75.685-11.2a3.326,3.326,0,0,1-2.806-3.781l3.4-22.972a3.318,3.318,0,0,1,3.78-2.807l20.458,3.028a.691.691,0,0,1-.2,1.367L387.717,397.5a1.956,1.956,0,0,0-2.21,1.644l-3.4,22.97a1.946,1.946,0,0,0,1.64,2.211l75.685,11.2a.691.691,0,0,1-.1,1.375Z" fill="#243762"/>
      <path id="Path_128" data-name="Path 128" d="M490.42,314.728l-88.525-13.1a2.638,2.638,0,0,0-3,2.225l-3.4,22.972a2.638,2.638,0,0,0,2.224,3l75.684,11.2,7.8,10.757,1.39-9.4,3.654.54a2.636,2.636,0,0,0,2.995-2.223l3.4-22.973A2.637,2.637,0,0,0,490.42,314.728Z" fill="#c5d9ff"/>
      <path id="Path_129" data-name="Path 129" d="M481.642,353.559l-8.621-11.9-75.4-11.154a3.336,3.336,0,0,1-2.806-3.783.692.692,0,1,1,1.369.2,1.946,1.946,0,0,0,1.64,2.211L473.8,340.38,480.771,350l1.243-8.4,4.338.642a1.947,1.947,0,0,0,2.21-1.642l2.259-15.281a.692.692,0,1,1,1.369.2L489.93,340.8a3.327,3.327,0,0,1-3.78,2.807l-2.97-.44Z" fill="#243762"/>
      <path id="Path_130" data-name="Path 130" d="M378.366,344.327l88.525,13.1a2.637,2.637,0,0,1,2.223,3l-3.4,22.971a2.638,2.638,0,0,1-3,2.225l-75.684-11.2-10.577,8.039,1.39-9.4-3.653-.541a2.638,2.638,0,0,1-2.224-3l3.4-22.972A2.639,2.639,0,0,1,378.366,344.327Z" fill="#16c0ff"/>
      <path id="Path_131" data-name="Path 131" d="M463.116,386.338a3.339,3.339,0,0,1-.5-.037l-47.245-6.989a.691.691,0,1,1,.2-1.367l47.245,6.988a1.945,1.945,0,0,0,2.21-1.641l3.4-22.973a1.951,1.951,0,0,0-1.642-2.211.692.692,0,0,1,.2-1.368,3.335,3.335,0,0,1,2.806,3.782l-3.4,22.971a3.333,3.333,0,0,1-3.286,2.844Z" fill="#243762"/>
      <rect id="Rectangle_8" data-name="Rectangle 8" width="21.773" height="128.284" transform="matrix(0.146, -0.989, 0.989, 0.146, 348.916, 462.766)" fill="#fff"/>
      <path id="Path_132" data-name="Path 132" d="M370.83,454.81a7.719,7.719,0,1,1-6.506-8.767A7.719,7.719,0,0,1,370.83,454.81Z" fill="#c5d9ff"/>
      <path id="Path_133" data-name="Path 133" d="M464.422,475.734a6.79,6.79,0,0,1-1.011-.075l-82.242-12.168a6.884,6.884,0,0,1,2.014-13.619l82.243,12.168a6.884,6.884,0,0,1-1,13.694Zm-.808-1.443a5.5,5.5,0,0,0,5.22-8.72,5.453,5.453,0,0,0-3.611-2.162l-82.242-12.169a5.5,5.5,0,1,0-1.609,10.883Z" fill="#af9cda" opacity="0.33"/>
      <path id="Path_134" data-name="Path 134" d="M391.429,241.294a2.786,2.786,0,0,1-.4-.029,2.709,2.709,0,0,1-1.217-4.855,2.672,2.672,0,0,1,2.01-.5,2.711,2.711,0,0,1,2.284,3.076h0A2.714,2.714,0,0,1,391.429,241.294Zm-.006-4.034a1.326,1.326,0,0,0-.191,2.637,1.329,1.329,0,0,0,1.5-1.118h0a1.323,1.323,0,0,0-1.116-1.5A1.359,1.359,0,0,0,391.424,237.259Z" fill="#fff"/>
      <path id="Path_135" data-name="Path 135" d="M398.919,242.4a2.812,2.812,0,0,1-.4-.029,2.706,2.706,0,1,1,.4.029Zm-.007-4.034a1.325,1.325,0,0,0-.194,2.636,1.322,1.322,0,0,0,1.5-1.116h0a1.322,1.322,0,0,0-1.31-1.519Z" fill="#fff"/>
      <path id="Path_136" data-name="Path 136" d="M406.257,243.488a2.764,2.764,0,0,1-.4-.029,2.708,2.708,0,1,1,.4.029Zm0-4.034a1.326,1.326,0,0,0-.191,2.637,1.326,1.326,0,0,0,.387-2.623A1.541,1.541,0,0,0,406.253,239.454Z" fill="#fff"/>
      <path id="Path_137" data-name="Path 137" d="M509.56,265.954a.832.832,0,0,1-.1-.007l-117.47-17.379a.692.692,0,1,1,.2-1.368l117.47,17.379a.691.691,0,0,1-.1,1.375Z" fill="#243762"/>
      <path id="Path_138" data-name="Path 138" d="M460.589,415.206a.653.653,0,0,1-.1-.008l-62.677-9.272a.69.69,0,0,1-.582-.784.68.68,0,0,1,.786-.582l62.677,9.272a.691.691,0,0,1-.1,1.375Z" fill="#fff"/>
      <path id="Path_139" data-name="Path 139" d="M423.483,417.358a.64.64,0,0,1-.1-.008L396.7,413.4a.691.691,0,1,1,.2-1.367l26.677,3.947a.691.691,0,0,1-.1,1.375Z" fill="#fff"/>
      <path id="Path_140" data-name="Path 140" d="M414.493,423.183a.636.636,0,0,1-.1-.008l-18.724-2.77a.691.691,0,1,1,.2-1.367l18.723,2.77a.691.691,0,0,1-.1,1.375Z" fill="#fff"/>
      <path id="Path_141" data-name="Path 141" d="M459.484,422.685a.636.636,0,0,1-.1-.008L431.812,418.6a.691.691,0,1,1,.2-1.367l27.569,4.077a.692.692,0,0,1-.1,1.377Z" fill="#fff"/>
      <g id="Group_98" data-name="Group 98">
        <path id="Path_142" data-name="Path 142" d="M452.936,363.182a.635.635,0,0,1-.1-.008L390.157,353.9a.69.69,0,0,1-.582-.786.682.682,0,0,1,.786-.581l62.677,9.272a.691.691,0,0,1-.1,1.375Z" fill="#fff"/>
        <path id="Path_143" data-name="Path 143" d="M415.83,365.334a.519.519,0,0,1-.1-.008l-26.676-3.946a.691.691,0,1,1,.2-1.367l26.677,3.946a.691.691,0,0,1-.1,1.375Z" fill="#fff"/>
        <path id="Path_144" data-name="Path 144" d="M443.548,376.59a.7.7,0,0,1-.106-.008l-54.093-8.394a.692.692,0,0,1,.212-1.367l54.093,8.394a.692.692,0,0,1-.105,1.375Z" fill="#fff"/>
        <path id="Path_145" data-name="Path 145" d="M451.831,370.661a.636.636,0,0,1-.1-.008l-27.569-4.079a.691.691,0,1,1,.2-1.367l27.569,4.079a.691.691,0,0,1-.1,1.375Z" fill="#fff"/>
      </g>
      <path id="Path_146" data-name="Path 146" d="M389.735,257.969l88.525,13.1a2.639,2.639,0,0,1,2.224,3l-3.4,22.972a2.638,2.638,0,0,1-3,2.225l-75.685-11.2L387.83,296.1l1.389-9.4-3.653-.54a2.64,2.64,0,0,1-2.224-3l3.4-22.973A2.639,2.639,0,0,1,389.735,257.969Z" fill="#16c0ff"/>
      <path id="Path_147" data-name="Path 147" d="M477.087,297.726a.825.825,0,0,1-.1-.007.694.694,0,0,1-.584-.786l3.4-22.972a1.946,1.946,0,0,0-1.64-2.211l-54.964-8.132a.69.69,0,0,1-.582-.784.7.7,0,0,1,.786-.584l54.963,8.132a3.328,3.328,0,0,1,2.806,3.781l-3.4,22.973A.691.691,0,0,1,477.087,297.726Z" fill="#243762"/>
      <g id="Group_99" data-name="Group 99">
        <path id="Path_148" data-name="Path 148" d="M464.305,276.825a.848.848,0,0,1-.1-.007l-62.678-9.274a.692.692,0,0,1,.2-1.368l62.677,9.274a.691.691,0,0,1-.1,1.375Z" fill="#fff"/>
        <path id="Path_149" data-name="Path 149" d="M427.2,278.977a.838.838,0,0,1-.1-.007l-26.677-3.947a.692.692,0,0,1,.2-1.368L427.3,277.6a.692.692,0,0,1-.1,1.377Z" fill="#fff"/>
        <path id="Path_150" data-name="Path 150" d="M454.916,290.232a.705.705,0,0,1-.107-.008l-54.093-8.394a.69.69,0,0,1-.577-.79.7.7,0,0,1,.79-.577l54.093,8.394a.692.692,0,0,1-.106,1.375Z" fill="#fff"/>
        <path id="Path_151" data-name="Path 151" d="M463.2,284.3a.64.64,0,0,1-.1-.008l-27.569-4.079a.692.692,0,0,1,.2-1.368l27.571,4.079a.692.692,0,0,1-.1,1.377Z" fill="#fff"/>
      </g>
      <path id="Path_152" data-name="Path 152" d="M474.721,320.9a.639.639,0,0,1-.1-.008l-62.677-9.272a.692.692,0,0,1,.2-1.37l62.678,9.274a.692.692,0,0,1-.1,1.377Z" fill="#fff"/>
      <path id="Path_153" data-name="Path 153" d="M437.614,323.053a.847.847,0,0,1-.1-.007L410.835,319.1a.692.692,0,0,1,.2-1.368l26.676,3.947a.691.691,0,0,1-.1,1.375Z" fill="#fff"/>
      <path id="Path_154" data-name="Path 154" d="M428.625,328.877a.64.64,0,0,1-.1-.008L409.8,326.1a.692.692,0,0,1,.2-1.37l18.723,2.77a.692.692,0,0,1-.1,1.377Z" fill="#fff"/>
      <path id="Path_155" data-name="Path 155" d="M473.614,328.379a.868.868,0,0,1-.1-.007l-27.569-4.08a.692.692,0,0,1,.2-1.368L473.715,327a.692.692,0,0,1-.1,1.377Z" fill="#fff"/>
    </g>
    <g id="Group_109" data-name="Group 109">
      <g id="Group_101" data-name="Group 101">
        <path id="Path_156" data-name="Path 156" d="M347.272,489.147l-141.989,16a4.968,4.968,0,0,1-5.494-4.382l-10.249-90.984a.262.262,0,0,1,.231-.289l151.311-17.053a.264.264,0,0,1,.29.231l10.252,91.017A4.938,4.938,0,0,1,347.272,489.147Z" fill="#f7a9b4"/>
        <path id="Path_157" data-name="Path 157" d="M204.724,505.87a5.67,5.67,0,0,1-5.623-5.029l-10.249-90.983a.957.957,0,0,1,.841-1.056L341,391.751a.949.949,0,0,1,1.054.841l10.253,91.019a5.63,5.63,0,0,1-4.963,6.223l-141.989,16A5.49,5.49,0,0,1,204.724,505.87ZM190.275,410.13l10.2,90.557a4.271,4.271,0,0,0,4.729,3.774l141.989-16,.077.689-.077-.689a4.242,4.242,0,0,0,3.743-4.693l-10.2-90.59Z" fill="#243762"/>
      </g>
      <path id="Path_158" data-name="Path 158" d="M340.618,489.147l-128.392,16c-2.726.309,39.787-54.236,39.48-56.964l-62.166-38.4a.262.262,0,0,1,.231-.289l151.311-17.053a.264.264,0,0,1,.29.231l-51.764,51.24C289.914,446.621,343.327,488.841,340.618,489.147Z" fill="#243762" opacity="0.29"/>
      <g id="Group_102" data-name="Group 102">
        <path id="Path_159" data-name="Path 159" d="M189.77,409.492l62.572-61.9a11.364,11.364,0,0,1,13.982-1.6L340.7,392.2a.158.158,0,0,1-.066.291L189.51,409.521" fill="#f7a9b4"/>
        <path id="Path_160" data-name="Path 160" d="M189.588,410.209l-.115-1.018-.188-.191.149-.148v-.018l.022,0,62.4-61.727a12.019,12.019,0,0,1,14.832-1.693l74.374,46.2a.849.849,0,0,1-.349,1.565Zm70.752-65.228a10.644,10.644,0,0,0-7.511,3.106L191.675,408.58l147.35-16.6-73.066-45.39A10.667,10.667,0,0,0,260.34,344.981Z" fill="#243762"/>
      </g>
      <path id="Path_161" data-name="Path 161" d="M189.77,409.492l62.572-61.9a11.364,11.364,0,0,1,13.982-1.6L340.7,392.2a.158.158,0,0,1-.066.291L189.51,409.521" fill="#243762" opacity="0.29"/>
      <g id="Group_103" data-name="Group 103">
        <path id="Path_162" data-name="Path 162" d="M259.262,438.642,212.226,504.1l128.392-14.469L280.2,436.283A14.2,14.2,0,0,0,259.262,438.642Z" fill="#f7a9b4"/>
        <path id="Path_163" data-name="Path 163" d="M210.756,504.961,258.7,438.24l.562.4-.562-.4a14.9,14.9,0,0,1,21.958-2.475l61.585,54.38Zm60.036-71.543a13.5,13.5,0,0,0-10.969,5.629L213.7,503.237l125.294-14.12L279.743,436.8A13.541,13.541,0,0,0,270.792,433.418Z" fill="#243762"/>
      </g>
      <g id="Group_104" data-name="Group 104">
        <path id="Path_164" data-name="Path 164" d="M197.41,364.65l98.9-11.145c6.483-.73,12.252,3.24,12.886,8.87l6.357,56.429-27.5,25.283-36.341,4.1-35.9-22.457-6.158-54.672Z" fill="#fff"/>
        <path id="Path_165" data-name="Path 165" d="M251.543,448.9l-36.384-22.763L209,371.5l-9.417-7.789,96.642-10.891a13.388,13.388,0,0,1,9.105,2.167,10.246,10.246,0,0,1,4.546,7.312l6.394,56.777-27.926,25.675Zm-35.084-23.582,35.409,22.152,35.877-4.044,27.077-24.893L308.5,362.45a8.876,8.876,0,0,0-3.953-6.325,12.015,12.015,0,0,0-8.168-1.931l-96.652,10.892,10.565,5.526Z" fill="#243762"/>
      </g>
      <path id="Path_166" data-name="Path 166" d="M259.262,432.995l-47.036,71.1,128.392-14.469L280.2,430.636A14.2,14.2,0,0,0,259.262,432.995Z" fill="#243762" opacity="0.29"/>
      <g id="Group_105" data-name="Group 105">
        <path id="Path_167" data-name="Path 167" d="M259.262,438.642,212.226,504.1l128.392-14.469L280.2,436.283A14.2,14.2,0,0,0,259.262,438.642Z" fill="#f7a9b4"/>
        <path id="Path_168" data-name="Path 168" d="M210.756,504.961,258.7,438.24l.562.4-.562-.4a14.9,14.9,0,0,1,21.958-2.475l61.585,54.38Zm60.036-71.543a13.5,13.5,0,0,0-10.969,5.629L213.7,503.237l125.294-14.12L279.743,436.8A13.541,13.541,0,0,0,270.792,433.418Z" fill="#243762"/>
      </g>
      <path id="Path_169" data-name="Path 169" d="M263.82,453.13,229.276,501.2l94.29-10.627L279.2,451.4A10.431,10.431,0,0,0,263.82,453.13Z" fill="#ecf1f7" opacity="0.35"/>
      <g id="Group_106" data-name="Group 106">
        <line id="Line_11" data-name="Line 11" x2="61.879" y2="38.568" transform="translate(189.827 409.615)" fill="#f7a9b4"/>
        <rect id="Rectangle_9" data-name="Rectangle 9" width="1.385" height="72.914" transform="matrix(0.529, -0.849, 0.849, 0.529, 189.461, 410.203)" fill="#243762"/>
      </g>
      <g id="Group_107" data-name="Group 107">
        <line id="Line_12" data-name="Line 12" x1="51.748" y2="51.373" transform="translate(289.609 392.538)" fill="#f7a9b4"/>
        <rect id="Rectangle_10" data-name="Rectangle 10" width="72.918" height="1.382" transform="matrix(0.709, -0.705, 0.705, 0.71, 289.13, 443.428)" fill="#243762"/>
      </g>
      <g id="Group_108" data-name="Group 108">
        <path id="Path_170" data-name="Path 170" d="M212.389,396.249l-17.261,1.945-2.773-24.63a8.289,8.289,0,0,1,7.309-9.167l.784-.089a8.29,8.29,0,0,1,9.166,7.31Z" fill="#ecf1f7"/>
        <path id="Path_171" data-name="Path 171" d="M194.519,398.959l-2.851-25.319a8.981,8.981,0,0,1,7.919-9.931l.786-.089a8.982,8.982,0,0,1,9.93,7.922l2.851,25.317Zm6.874-34.012a7.921,7.921,0,0,0-.866.048l-.786.089a7.6,7.6,0,0,0-6.7,8.4l2.7,23.944,15.886-1.79-2.7-23.944a7.6,7.6,0,0,0-7.534-6.749Z" fill="#243762"/>
      </g>
      <path id="Path_172" data-name="Path 172" d="M224.107,383.427a.692.692,0,0,1-.076-1.379l71.655-8.075a.692.692,0,0,1,.155,1.375l-71.655,8.075A.741.741,0,0,1,224.107,383.427Z" fill="#243762"/>
      <path id="Path_173" data-name="Path 173" d="M226.853,407.792a.692.692,0,0,1-.077-1.379l71.655-8.074a.692.692,0,0,1,.155,1.375l-71.655,8.074A.752.752,0,0,1,226.853,407.792Z" fill="#243762"/>
      <path id="Path_174" data-name="Path 174" d="M225.464,395.469a.692.692,0,0,1-.077-1.379l30.965-3.491a.692.692,0,0,1,.155,1.375l-30.965,3.491A.751.751,0,0,1,225.464,395.469Z" fill="#243762"/>
      <path id="Path_175" data-name="Path 175" d="M264.536,391.064a.692.692,0,0,1-.077-1.379l32.583-3.67a.692.692,0,1,1,.156,1.375l-32.585,3.67A.751.751,0,0,1,264.536,391.064Z" fill="#243762"/>
      <path id="Path_176" data-name="Path 176" d="M228.409,421.609a.692.692,0,0,1-.077-1.379L259.3,416.74a.692.692,0,0,1,.155,1.375L228.487,421.6A.751.751,0,0,1,228.409,421.609Z" fill="#243762"/>
    </g>
  </g>
</svg>
