<svg xmlns="http://www.w3.org/2000/svg" width="183.223" height="78.562" viewBox="0 0 183.223 78.562"><g transform="translate(-389.139 -8.305)"><text transform="translate(392.362 62.305)" fill="#fff" font-size="50" font-family="SegoeUI, Segoe UI" letter-spacing="0.06em"><tspan x="0" y="0" xml:space="preserve">A   SOL</tspan></text><text transform="translate(389.139 82.867)" fill="#fff" font-size="17" font-family="Montserrat-Light, Montserrat" font-weight="300"><tspan x="0" y="0">Vietnam AI Solution</tspan></text><path d="M432.669,67a.893.893,0,0,1-.874-.911V64.527a.893.893,0,0,1,.874-.911h6.709V61.349C433,60.512,428,54.613,428,47.919v-3.2a.893.893,0,0,1,.875-.911h1.5a.893.893,0,0,1,.874.911v3.2a9.758,9.758,0,1,0,19.5,0v-3.2a.893.893,0,0,1,.874-.911h1.5a.893.893,0,0,1,.874.911v3.2c0,6.694-5,12.595-11.375,13.431v2.267h6.71a.893.893,0,0,1,.874.911v1.563a.893.893,0,0,1-.874.911Zm.789-18.5V30.857a7.551,7.551,0,1,1,15.089,0V48.506a7.551,7.551,0,1,1-15.089,0Z" fill="#f1f3be"/></g></svg>