<svg id="Component_1_1" data-name="Component 1 – 1" xmlns="http://www.w3.org/2000/svg" width="127.994" height="128.01" viewBox="0 0 127.994 128.01">
  <path id="Shape_16" data-name="Shape 16" d="M830.505,2074.714a1.064,1.064,0,0,0-.856-.253l-.047.007-2.119.089a25.724,25.724,0,0,1-15.715-4.531,1.055,1.055,0,0,0-1.2,0,25.721,25.721,0,0,1-15.715,4.531l-2.121-.089-.046-.007a1.063,1.063,0,0,0-.856.253,1.094,1.094,0,0,0-.37.821v21.6a19.571,19.571,0,0,0,2.842,10.17,19.185,19.185,0,0,0,7.682,7.14l8.7,4.434a1.054,1.054,0,0,0,.96,0l8.7-4.434a19.181,19.181,0,0,0,7.681-7.14,19.56,19.56,0,0,0,2.843-10.17v-21.6a1.094,1.094,0,0,0-.37-.821m-27.563,37.793a17.133,17.133,0,0,1-9.344-15.371v-3.32h17.569v-21.594a28.008,28.008,0,0,0,16.4,4.5l1.169-.048v17.138h-17.57V2116.7Z" transform="translate(-747.999 -2029.001)" fill="#35ba9b"/>
  <path id="Shape_17" data-name="Shape 17" d="M786.676,2151.941c0-.16.01-.319.025-.474a5.012,5.012,0,0,1,1.021-2.591,5.1,5.1,0,0,1,9.146,3.065c0,.016,0,.032,0,.049a61.505,61.505,0,0,0,44.74-5.729q1.408-.779,2.769-1.626a60.595,60.595,0,0,0,12.957-92.471,5.1,5.1,0,0,1-7.5-4.467,5.018,5.018,0,0,1,.473-2.121,5.1,5.1,0,0,1,9.718,2.121,5.01,5.01,0,0,1-.684,2.526A63.355,63.355,0,0,1,847,2146.261q-1.292.842-2.629,1.626a64.291,64.291,0,0,1-48.308,6.771,5.1,5.1,0,0,1-9.391-2.717Zm3.874-1.929a2.276,2.276,0,0,0-1.076,1.929,2.238,2.238,0,0,0,.115.684,2.295,2.295,0,0,0,4.481-.684,2.254,2.254,0,0,0-.145-.777,2.288,2.288,0,0,0-3.376-1.153Zm63.936-104.559a2.291,2.291,0,0,0-1.843,2.092c0,.052-.015.1-.015.152a2.3,2.3,0,0,0,2.3,2.288,2.132,2.132,0,0,0,.29-.031,2.281,2.281,0,0,0,1.981-1.963,2.432,2.432,0,0,0,.03-.294,2.294,2.294,0,0,0-2.741-2.244Zm-90.516,92.862a5.009,5.009,0,0,1,.683-2.525,63.357,63.357,0,0,1,12.334-96.037q1.292-.842,2.629-1.626a64.276,64.276,0,0,1,48.308-6.772,5.1,5.1,0,0,1,9.391,2.717c0,.161-.01.318-.024.475a5.034,5.034,0,0,1-1.023,2.591,5.1,5.1,0,0,1-9.144-3.066c0-.016,0-.032,0-.048a61.5,61.5,0,0,0-44.738,5.729q-1.409.778-2.771,1.626a60.594,60.594,0,0,0-12.957,92.47,5.1,5.1,0,0,1,7.5,4.467,4.986,4.986,0,0,1-.474,2.121,5.1,5.1,0,0,1-9.717-2.121Zm4.805-2.256a2.282,2.282,0,0,0-1.981,1.962,2.67,2.67,0,0,0-.029.294,2.295,2.295,0,0,0,4.584.152c0-.051.017-.1.017-.152a2.3,2.3,0,0,0-2.3-2.286A2.041,2.041,0,0,0,768.775,2136.058ZM830.911,2032.2a2.286,2.286,0,1,0,3.608,1.875,2.246,2.246,0,0,0-.117-.685,2.286,2.286,0,0,0-3.491-1.19Z" transform="translate(-747.999 -2029.001)" fill="#35ba9b"/>
</svg>
