<svg xmlns="http://www.w3.org/2000/svg" width="127.994" height="128.002" viewBox="0 0 127.994 128.002">
  <path id="Shape_13" data-name="Shape 13" d="M480.688,2140.382a5.026,5.026,0,0,0,.474-2.127,5.1,5.1,0,0,0-7.5-4.479,61.209,61.209,0,1,1,77.717,10.814q-1.362.849-2.77,1.631a61.329,61.329,0,0,1-44.74,5.745c0-.017,0-.032,0-.048a5.092,5.092,0,0,0-9.144-3.074,5.037,5.037,0,0,0-1.022,2.6c-.016.156-.025.315-.025.477a5.094,5.094,0,0,0,9.391,2.723,64.132,64.132,0,0,0,48.309-6.79q1.334-.784,2.629-1.631a63.989,63.989,0,1,0-82.352-10.5,5.042,5.042,0,0,0-.684,2.535,5.1,5.1,0,0,0,9.718,2.127m18.084,13.83a2.305,2.305,0,1,1,1.311-.413,2.3,2.3,0,0,1-1.311.413m-25.007-15.957a2.572,2.572,0,0,1,.03-.3,2.285,2.285,0,0,1,1.981-1.968,2.2,2.2,0,0,1,.29-.03,2.3,2.3,0,0,1,2.3,2.294c0,.052-.013.1-.017.15a2.294,2.294,0,0,1-1.842,2.1,2.4,2.4,0,0,1-.441.044,2.3,2.3,0,0,1-2.3-2.293" transform="translate(-455 -2028.998)" fill="#e8553e"/>
</svg>
