<svg id="Component_3_1" data-name="Component 3 – 1" xmlns="http://www.w3.org/2000/svg" width="127.994" height="128.01" viewBox="0 0 127.994 128.01">
  <path id="Shape_17_copy" data-name="Shape 17 copy" d="M1078.675,2151.941c0-.16.01-.319.025-.474a5.02,5.02,0,0,1,1.022-2.591,5.1,5.1,0,0,1,9.146,3.065c0,.016,0,.032,0,.049a61.5,61.5,0,0,0,44.739-5.729q1.408-.779,2.77-1.626a60.6,60.6,0,0,0,12.957-92.471,5.1,5.1,0,0,1-7.5-4.467,5.032,5.032,0,0,1,.473-2.121,5.1,5.1,0,0,1,9.718,2.121,5.019,5.019,0,0,1-.683,2.526A63.356,63.356,0,0,1,1139,2146.261q-1.292.842-2.629,1.626a64.291,64.291,0,0,1-48.308,6.771,5.1,5.1,0,0,1-9.392-2.717Zm3.874-1.929a2.278,2.278,0,0,0-1.076,1.929,2.239,2.239,0,0,0,.116.684,2.295,2.295,0,0,0,4.481-.684,2.254,2.254,0,0,0-.146-.777,2.287,2.287,0,0,0-3.376-1.153Zm63.936-104.559a2.289,2.289,0,0,0-1.842,2.092c0,.052-.015.1-.015.152a2.3,2.3,0,0,0,2.3,2.288,2.161,2.161,0,0,0,.291-.031,2.281,2.281,0,0,0,1.98-1.963,2.432,2.432,0,0,0,.03-.294,2.294,2.294,0,0,0-2.741-2.244Zm-90.516,92.862a5.01,5.01,0,0,1,.684-2.525,63.357,63.357,0,0,1,12.334-96.037q1.292-.842,2.63-1.626a64.276,64.276,0,0,1,48.308-6.772,5.1,5.1,0,0,1,9.391,2.717c0,.161-.01.318-.024.475a5.027,5.027,0,0,1-1.023,2.591,5.1,5.1,0,0,1-9.144-3.066c0-.016,0-.032,0-.048a61.5,61.5,0,0,0-44.737,5.729q-1.411.778-2.771,1.626a60.593,60.593,0,0,0-12.958,92.47,5.1,5.1,0,0,1,7.5,4.467,5,5,0,0,1-.473,2.121,5.1,5.1,0,0,1-9.718-2.121Zm4.805-2.256a2.28,2.28,0,0,0-1.98,1.962,2.465,2.465,0,0,0-.03.294,2.295,2.295,0,0,0,4.584.152c0-.051.017-.1.017-.152a2.3,2.3,0,0,0-2.3-2.286A2.055,2.055,0,0,0,1060.774,2136.058ZM1122.91,2032.2a2.277,2.277,0,0,0-.99,1.875,2.25,2.25,0,0,0,.146.777,2.29,2.29,0,1,0,.844-2.651Z" transform="translate(-1040 -2029.001)" fill="#0d96d4"/>
  <path id="Shape_18" data-name="Shape 18" d="M1104.768,2113.688a3.324,3.324,0,0,1,2.552-3.229v-11.514h-4.337a.766.766,0,0,1,0-1.533h5.1a.767.767,0,0,1,.766.767v12.28a3.319,3.319,0,1,1-4.083,3.229Zm1.531,0a1.786,1.786,0,1,0,1.786-1.787A1.789,1.789,0,0,0,1106.3,2113.688Zm-9.7,0a3.324,3.324,0,0,1,2.552-3.229v-11.514h-4.338a.766.766,0,0,1,0-1.533h5.1a.767.767,0,0,1,.766.767v12.28a3.319,3.319,0,1,1-4.083,3.229Zm1.531,0a1.786,1.786,0,1,0,1.786-1.787A1.79,1.79,0,0,0,1098.133,2113.688Zm20.5-4.342h-2.386a.766.766,0,0,1-.766-.765v-9.636h-4.338a.766.766,0,0,1,0-1.533h5.1a.766.766,0,0,1,.765.767v9.635h1.621a3.32,3.32,0,1,1,0,1.532Zm1.442-.765a1.786,1.786,0,1,0,1.786-1.788A1.789,1.789,0,0,0,1120.08,2108.581Zm-37.257,0a3.317,3.317,0,0,1,6.545-.767h1.621v-8.869h-1.778a9.2,9.2,0,0,1-2.316-18.107,6.634,6.634,0,0,1,6.465-5.221,6.548,6.548,0,0,1,1.984.3,14.492,14.492,0,0,1,26.833,6.863,8.267,8.267,0,0,1-2.444,16.161h-.417a.766.766,0,0,1,0-1.533h.417a6.734,6.734,0,0,0,1.523-13.292.766.766,0,0,1-.593-.74,12.96,12.96,0,0,0-24.311-6.146.766.766,0,0,1-.974.332,5.084,5.084,0,0,0-7.056,4,.765.765,0,0,1-.609.652,7.67,7.67,0,0,0,1.5,15.19h2.544a.766.766,0,0,1,.765.767v10.4a.765.765,0,0,1-.765.765h-2.387a3.317,3.317,0,0,1-6.545-.765Zm1.531,0a1.786,1.786,0,1,0,1.786-1.788A1.79,1.79,0,0,0,1084.353,2108.581Zm32.99-24.4a.767.767,0,0,1-.766-.76,8.776,8.776,0,0,0-.6-3.126.766.766,0,1,1,1.427-.558,10.331,10.331,0,0,1,.707,3.671.766.766,0,0,1-.759.773Zm-2.8-6.319a8.858,8.858,0,0,0-6.844-3.244.766.766,0,0,1,0-1.532,10.381,10.381,0,0,1,8.024,3.8.766.766,0,1,1-1.18.976Z" transform="translate(-1040 -2029.001)" fill="#0d96d4"/>
</svg>
